<svg width="42" height="30" fill="none" xmlns="http://www.w3.org/2000/svg"><g filter="url('#filter0_f_12_1013')"><rect x="6.181" y="5.848" width="30.058" height="18.423" rx="9.211" fill="url('#paint0_linear_12_1013')"/><rect x="6.181" y="5.848" width="30.058" height="18.423" rx="9.211" fill="url('#paint1_linear_12_1013')"/></g><rect x="4.243" y="1.97" width="33.936" height="22.301" rx="11.15" fill="url('#paint2_linear_12_1013')"/><rect x="4.243" y="1.97" width="33.936" height="22.301" rx="11.15" fill="url('#paint3_linear_12_1013')"/><rect x="4" y="1" width="33.936" height="22.301" rx="11.15" fill="url('#paint4_linear_12_1013')"/><path d="M18.74 6.996a.509.509 0 0 0-.76-.047l-.776.776c-.362.363-.496.877-.337 1.328a13.175 13.175 0 0 0 3.126 4.956c1.396 1.4 3.09 2.469 4.956 3.126.45.158.964.024 1.327-.338l.776-.775a.508.508 0 0 0-.048-.761l-1.73-1.346a.507.507 0 0 0-.435-.091l-1.642.41a1.309 1.309 0 0 1-1.243-.345l-1.842-1.842a1.308 1.308 0 0 1-.345-1.243l.41-1.643a.51.51 0 0 0-.09-.435l-1.346-1.73Zm-1.327-.613a1.308 1.308 0 0 1 1.96.123l1.345 1.73c.247.316.334.73.236 1.12l-.41 1.642a.507.507 0 0 0 .133.482l1.843 1.843a.508.508 0 0 0 .483.134l1.642-.41a1.31 1.31 0 0 1 1.12.236l1.73 1.345c.622.484.679 1.403.122 1.959l-.775.775c-.555.555-1.385.799-2.158.527a13.975 13.975 0 0 1-5.258-3.316 13.974 13.974 0 0 1-3.315-5.256c-.271-.773-.027-1.603.528-2.158l.775-.776Z" fill="#fff"/><defs><linearGradient id="paint0_linear_12_1013" x1="7.04" y1="24.271" x2="37.815" y2="6.881" gradientUnits="userSpaceOnUse"><stop stop-color="#27D045"/><stop offset="1" stop-color="#5FFC7B"/></linearGradient><linearGradient id="paint1_linear_12_1013" x1="37.624" y1="5.709" x2="11.189" y2="27.455" gradientUnits="userSpaceOnUse"><stop stop-color="#1DAB36"/><stop offset="1" stop-color="#5FFC7B"/></linearGradient><linearGradient id="paint2_linear_12_1013" x1="5.213" y1="24.271" x2="41.088" y2="5.363" gradientUnits="userSpaceOnUse"><stop stop-color="#25C040"/><stop offset="1" stop-color="#55EB70"/></linearGradient><linearGradient id="paint3_linear_12_1013" x1="39.743" y1="1.801" x2="8.243" y2="25.97" gradientUnits="userSpaceOnUse"><stop stop-color="#20C23D"/><stop offset="1" stop-color="#52E96D"/></linearGradient><linearGradient id="paint4_linear_12_1013" x1="39.5" y1=".831" x2="8" y2="25" gradientUnits="userSpaceOnUse"><stop stop-color="#1DAB36"/><stop offset="1" stop-color="#5FFC7B"/></linearGradient><filter id="filter0_f_12_1013" x=".98" y=".647" width="40.46" height="28.824" filterUnits="userSpaceOnUse" color-interpolation-filters="sRGB"><feFlood flood-opacity="0" result="BackgroundImageFix"/><feBlend in="SourceGraphic" in2="BackgroundImageFix" result="shape"/><feGaussianBlur stdDeviation="2.6" result="effect1_foregroundBlur_12_1013"/></filter></defs></svg>