<svg width="143" height="55" fill="none" xmlns="http://www.w3.org/2000/svg"><g filter="url('#filter0_f_6_56')"><rect x="10.063" y="7" width="113" height="42" rx="21" fill="#fff"/><rect x="10.063" y="7" width="113" height="42" rx="21" fill="url('#paint0_linear_6_56')"/><rect x="10.063" y="7" width="113" height="42" rx="21" fill="url('#paint1_linear_6_56')"/><path fill-rule="evenodd" clip-rule="evenodd" d="M40.144 23.794a5.838 5.838 0 0 0-4.156-1.723 5.884 5.884 0 0 0-5.876 5.876c0 1.035.27 2.046.784 2.937l-.834 3.045 3.115-.817a5.87 5.87 0 0 0 2.808.715h.003a5.884 5.884 0 0 0 5.875-5.876 5.84 5.84 0 0 0-1.719-4.157Zm-4.156 9.04h-.002a4.876 4.876 0 0 1-2.486-.68l-.178-.106-1.849.485.494-1.802-.116-.185a4.872 4.872 0 0 1-.747-2.6 4.89 4.89 0 0 1 4.886-4.882 4.85 4.85 0 0 1 3.452 1.432 4.854 4.854 0 0 1 1.43 3.455 4.89 4.89 0 0 1-4.884 4.884Zm2.678-3.657a24.509 24.509 0 0 0-1.003-.478c-.134-.049-.232-.073-.33.074s-.38.477-.465.576c-.086.097-.171.11-.318.036-.147-.073-.62-.228-1.18-.729a4.424 4.424 0 0 1-.817-1.017c-.086-.147-.01-.226.064-.3.066-.065.147-.17.22-.256.074-.086.098-.147.147-.245.049-.098.024-.184-.012-.258-.037-.073-.33-.796-.453-1.09-.12-.286-.24-.247-.33-.252a5.961 5.961 0 0 0-.282-.005.54.54 0 0 0-.391.184c-.135.147-.514.502-.514 1.225 0 .722.526 1.42.6 1.518.073.098 1.035 1.581 2.508 2.217.35.152.623.242.837.31.351.111.671.095.924.058.282-.043.869-.355.991-.698.122-.343.122-.637.086-.699-.037-.06-.135-.098-.282-.171Z" fill="#fff"/><path fill-rule="evenodd" clip-rule="evenodd" d="M40.144 23.794a5.838 5.838 0 0 0-4.156-1.723 5.884 5.884 0 0 0-5.876 5.876c0 1.035.27 2.046.784 2.937l-.834 3.045 3.115-.817a5.87 5.87 0 0 0 2.808.715h.003a5.884 5.884 0 0 0 5.875-5.876 5.84 5.84 0 0 0-1.719-4.157Zm-4.156 9.04h-.002a4.876 4.876 0 0 1-2.486-.68l-.178-.106-1.849.485.494-1.802-.116-.185a4.872 4.872 0 0 1-.747-2.6 4.89 4.89 0 0 1 4.886-4.882 4.85 4.85 0 0 1 3.452 1.432 4.854 4.854 0 0 1 1.43 3.455 4.89 4.89 0 0 1-4.884 4.884Zm2.678-3.657a24.509 24.509 0 0 0-1.003-.478c-.134-.049-.232-.073-.33.074s-.38.477-.465.576c-.086.097-.171.11-.318.036-.147-.073-.62-.228-1.18-.729a4.424 4.424 0 0 1-.817-1.017c-.086-.147-.01-.226.064-.3.066-.065.147-.17.22-.256.074-.086.098-.147.147-.245.049-.098.024-.184-.012-.258-.037-.073-.33-.796-.453-1.09-.12-.286-.24-.247-.33-.252a5.961 5.961 0 0 0-.282-.005.54.54 0 0 0-.391.184c-.135.147-.514.502-.514 1.225 0 .722.526 1.42.6 1.518.073.098 1.035 1.581 2.508 2.217.35.152.623.242.837.31.351.111.671.095.924.058.282-.043.869-.355.991-.698.122-.343.122-.637.086-.699-.037-.06-.135-.098-.282-.171Z" fill="url('#paint2_linear_6_56')"/><path fill-rule="evenodd" clip-rule="evenodd" d="M40.144 23.794a5.838 5.838 0 0 0-4.156-1.723 5.884 5.884 0 0 0-5.876 5.876c0 1.035.27 2.046.784 2.937l-.834 3.045 3.115-.817a5.87 5.87 0 0 0 2.808.715h.003a5.884 5.884 0 0 0 5.875-5.876 5.84 5.84 0 0 0-1.719-4.157Zm-4.156 9.04h-.002a4.876 4.876 0 0 1-2.486-.68l-.178-.106-1.849.485.494-1.802-.116-.185a4.872 4.872 0 0 1-.747-2.6 4.89 4.89 0 0 1 4.886-4.882 4.85 4.85 0 0 1 3.452 1.432 4.854 4.854 0 0 1 1.43 3.455 4.89 4.89 0 0 1-4.884 4.884Zm2.678-3.657a24.509 24.509 0 0 0-1.003-.478c-.134-.049-.232-.073-.33.074s-.38.477-.465.576c-.086.097-.171.11-.318.036-.147-.073-.62-.228-1.18-.729a4.424 4.424 0 0 1-.817-1.017c-.086-.147-.01-.226.064-.3.066-.065.147-.17.22-.256.074-.086.098-.147.147-.245.049-.098.024-.184-.012-.258-.037-.073-.33-.796-.453-1.09-.12-.286-.24-.247-.33-.252a5.961 5.961 0 0 0-.282-.005.54.54 0 0 0-.391.184c-.135.147-.514.502-.514 1.225 0 .722.526 1.42.6 1.518.073.098 1.035 1.581 2.508 2.217.35.152.623.242.837.31.351.111.671.095.924.058.282-.043.869-.355.991-.698.122-.343.122-.637.086-.699-.037-.06-.135-.098-.282-.171Z" fill="#fff"/><path d="M62.882 15.15V25h-.958v-4.606h-5.84V25h-.972v-9.85h.971v4.383h5.841V15.15h.958Zm4.056 9.989c-.343 0-.662-.056-.958-.167a2.62 2.62 0 0 1-.763-.485 2.236 2.236 0 0 1-.5-.708 2.21 2.21 0 0 1-.18-.888c0-.314.074-.606.222-.874.148-.268.356-.5.625-.694a2.95 2.95 0 0 1 .957-.444 4.24 4.24 0 0 1 1.22-.166c.37 0 .745.032 1.125.097.379.065.716.157 1.012.277v-.652c0-.638-.18-1.142-.54-1.512-.361-.38-.86-.569-1.499-.569-.37 0-.75.074-1.138.222a5.49 5.49 0 0 0-1.179.638l-.333-.624c.934-.629 1.84-.943 2.72-.943.906 0 1.618.254 2.136.763s.777 1.211.777 2.109v3.26c0 .26.115.389.347.389V25a2.255 2.255 0 0 1-.361.042c-.24 0-.43-.06-.569-.18-.13-.121-.199-.287-.208-.5l-.028-.57a3.266 3.266 0 0 1-1.262 1c-.5.231-1.04.347-1.624.347Zm.221-.722c.49 0 .94-.092 1.346-.277.416-.185.731-.43.944-.736a.791.791 0 0 0 .18-.263.68.68 0 0 0 .07-.278v-1.179a5.732 5.732 0 0 0-2.012-.375c-.666 0-1.207.14-1.624.417-.416.277-.624.643-.624 1.096 0 .222.042.43.125.624.092.194.213.365.36.513.158.14.343.25.556.333.212.084.439.125.68.125ZM78.396 25h-.915v-6.41h-3.844V25h-.93v-7.229h5.69V25Zm3.06-1.332 4.314-5.896h.763V25h-.93v-5.786L81.373 25h-.846v-7.229h.93v5.897Zm6.686-2.303c0-.509.088-.99.263-1.443.176-.453.421-.846.736-1.18.323-.341.707-.61 1.151-.804a3.63 3.63 0 0 1 1.47-.291c.685 0 1.282.157 1.79.471.51.306.893.722 1.152 1.25l-.915.29a2.14 2.14 0 0 0-.86-.86 2.332 2.332 0 0 0-1.208-.319c-.37 0-.717.074-1.04.222a2.69 2.69 0 0 0-.833.61c-.231.25-.416.55-.555.902-.13.352-.194.736-.194 1.152 0 .407.07.79.208 1.152.139.36.328.675.569.943.24.259.518.467.832.624a2.44 2.44 0 0 0 1.707.125c.231-.065.444-.152.638-.263.194-.12.36-.255.5-.403.138-.148.236-.305.291-.471l.93.277c-.102.259-.25.5-.444.721a3.26 3.26 0 0 1-.694.57c-.26.157-.55.277-.874.36a3.473 3.473 0 0 1-.985.139 3.596 3.596 0 0 1-1.457-.292 3.676 3.676 0 0 1-1.152-.818 3.99 3.99 0 0 1-.763-1.207 3.993 3.993 0 0 1-.263-1.457Zm9.931 3.774c-.342 0-.661-.056-.957-.167a2.62 2.62 0 0 1-.763-.485 2.236 2.236 0 0 1-.5-.708 2.208 2.208 0 0 1-.18-.888c0-.314.074-.606.222-.874.148-.268.356-.5.624-.694.269-.194.588-.342.958-.444.37-.11.777-.166 1.22-.166.37 0 .745.032 1.124.097.38.065.717.157 1.013.277v-.652c0-.638-.18-1.142-.541-1.512-.36-.38-.86-.569-1.498-.569-.37 0-.75.074-1.138.222a5.49 5.49 0 0 0-1.18.638l-.332-.624c.934-.629 1.84-.943 2.72-.943.906 0 1.618.254 2.136.763s.777 1.211.777 2.109v3.26c0 .26.115.389.347.389V25a2.269 2.269 0 0 1-.361.042c-.241 0-.43-.06-.569-.18-.13-.121-.199-.287-.208-.5l-.028-.57a3.268 3.268 0 0 1-1.263 1c-.499.231-1.04.347-1.623.347Zm.222-.722c.49 0 .94-.092 1.346-.277.416-.185.731-.43.943-.736a.783.783 0 0 0 .181-.263.682.682 0 0 0 .069-.278v-1.179a5.725 5.725 0 0 0-2.011-.375c-.666 0-1.208.14-1.624.417-.416.277-.624.643-.624 1.096 0 .222.041.43.125.624.092.194.212.365.36.513.158.14.343.25.555.333.213.084.44.125.68.125Zm8.037.583h-.916v-6.41h-2.539v-.819h5.994v.82h-2.539V25Zm3.88-7.229h.929v2.567h1.568c.333 0 .647.051.943.153.296.102.555.25.777.444.222.194.398.44.528.735.129.287.194.62.194 1 0 .378-.065.716-.194 1.012a2.09 2.09 0 0 1-.528.721 2.304 2.304 0 0 1-.777.444 2.88 2.88 0 0 1-.943.153h-2.497v-7.229Zm2.497 6.424c.481 0 .851-.134 1.11-.402.268-.277.402-.652.402-1.124 0-.472-.134-.842-.402-1.11-.268-.277-.638-.416-1.11-.416h-1.568v3.052h1.568Zm-54.226 9.577a1.756 1.756 0 0 1 1.277.527c.166.157.291.342.375.555.092.212.138.444.138.693 0 .167-.023.333-.07.5a1.93 1.93 0 0 1-.18.486c-.083.148-.189.286-.319.416-.129.12-.282.217-.457.291.407.111.726.324.957.638.231.315.347.694.347 1.138 0 .296-.056.564-.167.805-.101.24-.25.448-.444.624a2.035 2.035 0 0 1-.666.416 2.5 2.5 0 0 1-.846.139h-3.482v-7.228h3.538Zm-.374 3.19c.38 0 .68-.12.902-.36.222-.24.333-.546.333-.916 0-.324-.093-.606-.278-.846-.185-.24-.472-.36-.86-.36h-2.345v2.483h2.248Zm.222 3.33c.194 0 .37-.037.527-.11.167-.075.305-.172.416-.292.111-.13.2-.273.264-.43a1.3 1.3 0 0 0 .097-.5c0-.333-.115-.629-.347-.888-.222-.259-.532-.388-.93-.388h-2.497v2.608h2.47Zm10.796-9.073h.916l1.387 3.496 1.401-3.496h.93l-1.72 4.204 1.886 4.453 3.566-8.727h1.055L74.37 41h-.86l-2.067-4.87L69.363 41h-.846l-4.163-9.85h1.04l3.58 8.726 1.873-4.453-1.72-4.204ZM85.817 41h-.944v-4.037c0-.824-.144-1.439-.43-1.846-.278-.407-.69-.61-1.235-.61-.268 0-.537.055-.805.166a2.838 2.838 0 0 0-.735.43 3.154 3.154 0 0 0-.61.652c-.167.25-.292.523-.375.82V41h-.944V30.872h.944v4.537a3.277 3.277 0 0 1 1.193-1.29 3.083 3.083 0 0 1 1.651-.472c.416 0 .768.078 1.055.236.286.148.522.36.707.638.185.268.32.596.403.985.083.379.124.8.124 1.262V41Zm3.829.139c-.343 0-.662-.056-.958-.167a2.62 2.62 0 0 1-.763-.485 2.238 2.238 0 0 1-.5-.708 2.21 2.21 0 0 1-.18-.888c0-.314.075-.606.222-.874.148-.268.357-.5.625-.694.268-.194.587-.342.957-.444a4.24 4.24 0 0 1 1.221-.166c.37 0 .745.032 1.124.097.38.065.717.157 1.013.277v-.652c0-.638-.18-1.142-.541-1.512-.361-.38-.86-.569-1.499-.569-.37 0-.749.074-1.138.222a5.49 5.49 0 0 0-1.179.638l-.333-.624c.934-.629 1.84-.943 2.72-.943.906 0 1.618.254 2.136.763s.777 1.211.777 2.109v3.26c0 .26.116.388.347.388V41a2.254 2.254 0 0 1-.36.042c-.241 0-.43-.06-.57-.18-.13-.121-.198-.288-.208-.5l-.027-.57a3.267 3.267 0 0 1-1.263 1c-.5.231-1.04.347-1.623.347Zm.222-.722c.49 0 .939-.092 1.346-.277.416-.185.73-.43.943-.736a.792.792 0 0 0 .18-.263.679.679 0 0 0 .07-.278v-1.179a5.73 5.73 0 0 0-2.012-.374c-.666 0-1.207.138-1.623.416-.417.277-.625.642-.625 1.096 0 .222.042.43.125.624.093.194.213.365.36.513.158.14.343.25.556.333.213.084.44.125.68.125Zm8.935.236a4.234 4.234 0 0 1-.25.111 3.733 3.733 0 0 1-.36.139 4.295 4.295 0 0 1-.472.125c-.176.037-.361.055-.555.055-.204 0-.398-.027-.583-.083a1.422 1.422 0 0 1-.486-.25 1.335 1.335 0 0 1-.457-1.054V34.52h-1v-.75h1V31.33h.943v2.442h1.665v.749h-1.665v4.911c.019.268.111.467.278.597.175.12.374.18.596.18.268 0 .504-.042.708-.125.203-.092.333-.157.388-.194l.25.763Zm3.579.486a5.031 5.031 0 0 1-1.651-.278 3.965 3.965 0 0 1-1.387-.804l.43-.639c.407.333.818.583 1.234.75.426.166.879.25 1.36.25.583 0 1.045-.116 1.388-.348.351-.24.527-.578.527-1.012a.843.843 0 0 0-.139-.5 1.158 1.158 0 0 0-.416-.36 2.835 2.835 0 0 0-.68-.264 13.251 13.251 0 0 0-.944-.25 14.04 14.04 0 0 1-1.082-.305 3.484 3.484 0 0 1-.763-.347 1.348 1.348 0 0 1-.444-.472 1.672 1.672 0 0 1-.138-.721c0-.36.069-.68.208-.957.148-.278.342-.505.582-.68a2.66 2.66 0 0 1 .861-.417 3.914 3.914 0 0 1 1.054-.138c.555 0 1.059.092 1.512.277.453.176.819.412 1.096.708l-.458.555a2.524 2.524 0 0 0-.985-.625 3.443 3.443 0 0 0-1.193-.208c-.25 0-.481.028-.694.084a1.643 1.643 0 0 0-.568.235 1.216 1.216 0 0 0-.514 1.027c0 .194.033.351.097.472.065.12.172.226.32.319.148.083.333.162.554.236.232.065.509.134.833.208.462.11.869.222 1.221.333.351.11.643.24.874.388.24.148.421.329.541.541.12.213.18.472.18.777 0 .666-.254 1.194-.763 1.582-.508.389-1.193.583-2.053.583Zm7.499-9.99h.818L114.792 41h-1.026l-1.277-3.08h-4.426L106.801 41h-1.041l4.121-9.85Zm2.386 6.008-1.984-4.87-2.012 4.87h3.996Zm7.434 3.982c-.611 0-1.152-.153-1.623-.458a3.784 3.784 0 0 1-1.124-1.18v4.454h-.944V33.772h.847v1.4a3.432 3.432 0 0 1 1.151-1.095 2.91 2.91 0 0 1 1.54-.43c.5 0 .958.106 1.374.319.416.203.777.48 1.082.832.305.342.541.74.708 1.193.175.454.263.92.263 1.402 0 .508-.078.99-.236 1.443a3.61 3.61 0 0 1-.68 1.193 3.21 3.21 0 0 1-1.04.818 2.964 2.964 0 0 1-1.318.292Zm-.264-.833c.389 0 .74-.083 1.055-.25.323-.166.596-.383.818-.651.231-.278.407-.588.527-.93.121-.352.181-.712.181-1.082a3.078 3.078 0 0 0-.777-2.04 2.681 2.681 0 0 0-.86-.638 2.384 2.384 0 0 0-1.055-.236c-.24 0-.495.051-.763.153a2.95 2.95 0 0 0-.735.388 2.626 2.626 0 0 0-.583.569c-.157.213-.254.44-.291.68v2.22c.111.259.249.5.416.721.176.222.37.416.583.583.222.157.457.282.707.374.25.093.509.14.777.14Zm8.827.833c-.611 0-1.152-.153-1.623-.458a3.784 3.784 0 0 1-1.124-1.18v4.454h-.944V33.772h.847v1.4a3.432 3.432 0 0 1 1.151-1.095 2.91 2.91 0 0 1 1.54-.43c.5 0 .958.106 1.374.319.416.203.777.48 1.082.832.305.342.541.74.708 1.193.175.454.263.92.263 1.402 0 .508-.078.99-.236 1.443a3.61 3.61 0 0 1-.68 1.193 3.21 3.21 0 0 1-1.04.818 2.964 2.964 0 0 1-1.318.292Zm-.264-.833c.389 0 .74-.083 1.055-.25.323-.166.596-.383.818-.651.231-.278.407-.588.527-.93.121-.352.181-.712.181-1.082a3.078 3.078 0 0 0-.777-2.04 2.681 2.681 0 0 0-.86-.638 2.384 2.384 0 0 0-1.055-.236c-.24 0-.495.051-.763.153a2.95 2.95 0 0 0-.735.388 2.626 2.626 0 0 0-.583.569c-.157.213-.254.44-.291.68v2.22c.111.259.249.5.416.721.176.222.37.416.583.583.222.157.458.282.707.374.25.093.509.14.777.14Z" fill="#fff"/></g><rect y="2" width="142.801" height="52" rx="26" fill="#fff"/><rect y="2" width="142.801" height="52" rx="26" fill="url('#paint3_linear_6_56')"/><rect y="2" width="142.801" height="52" rx="26" fill="url('#paint4_linear_6_56')"/><path fill-rule="evenodd" clip-rule="evenodd" d="M30.081 23.794a5.838 5.838 0 0 0-4.156-1.723 5.884 5.884 0 0 0-5.876 5.876c0 1.035.27 2.046.785 2.937L20 33.93l3.115-.817a5.87 5.87 0 0 0 2.808.715h.002a5.884 5.884 0 0 0 5.876-5.876 5.84 5.84 0 0 0-1.72-4.157Zm-4.156 9.04h-.002a4.876 4.876 0 0 1-2.485-.68l-.179-.106-1.848.485.493-1.802-.116-.185a4.872 4.872 0 0 1-.747-2.6 4.89 4.89 0 0 1 4.886-4.882 4.85 4.85 0 0 1 3.453 1.432 4.854 4.854 0 0 1 1.429 3.455 4.89 4.89 0 0 1-4.884 4.884Zm2.679-3.657a24.509 24.509 0 0 0-1.003-.478c-.135-.049-.233-.073-.33.074-.098.147-.38.477-.466.576-.085.097-.17.11-.317.036-.147-.073-.62-.228-1.181-.729a4.424 4.424 0 0 1-.817-1.017c-.086-.147-.01-.226.064-.3.067-.065.147-.17.22-.256.074-.086.099-.147.148-.245.049-.098.024-.184-.013-.258-.036-.073-.33-.796-.452-1.09-.12-.286-.24-.247-.33-.252a5.961 5.961 0 0 0-.282-.005.54.54 0 0 0-.392.184c-.134.147-.514.502-.514 1.225 0 .722.527 1.42.6 1.518.073.098 1.035 1.581 2.508 2.217.35.152.624.242.837.31.352.111.672.095.925.058.282-.043.868-.355.99-.698.123-.343.123-.637.086-.699-.036-.06-.134-.098-.281-.171Z" fill="#fff"/><path fill-rule="evenodd" clip-rule="evenodd" d="M30.081 23.794a5.838 5.838 0 0 0-4.156-1.723 5.884 5.884 0 0 0-5.876 5.876c0 1.035.27 2.046.785 2.937L20 33.93l3.115-.817a5.87 5.87 0 0 0 2.808.715h.002a5.884 5.884 0 0 0 5.876-5.876 5.84 5.84 0 0 0-1.72-4.157Zm-4.156 9.04h-.002a4.876 4.876 0 0 1-2.485-.68l-.179-.106-1.848.485.493-1.802-.116-.185a4.872 4.872 0 0 1-.747-2.6 4.89 4.89 0 0 1 4.886-4.882 4.85 4.85 0 0 1 3.453 1.432 4.854 4.854 0 0 1 1.429 3.455 4.89 4.89 0 0 1-4.884 4.884Zm2.679-3.657a24.509 24.509 0 0 0-1.003-.478c-.135-.049-.233-.073-.33.074-.098.147-.38.477-.466.576-.085.097-.17.11-.317.036-.147-.073-.62-.228-1.181-.729a4.424 4.424 0 0 1-.817-1.017c-.086-.147-.01-.226.064-.3.067-.065.147-.17.22-.256.074-.086.099-.147.148-.245.049-.098.024-.184-.013-.258-.036-.073-.33-.796-.452-1.09-.12-.286-.24-.247-.33-.252a5.961 5.961 0 0 0-.282-.005.54.54 0 0 0-.392.184c-.134.147-.514.502-.514 1.225 0 .722.527 1.42.6 1.518.073.098 1.035 1.581 2.508 2.217.35.152.624.242.837.31.352.111.672.095.925.058.282-.043.868-.355.99-.698.123-.343.123-.637.086-.699-.036-.06-.134-.098-.281-.171Z" fill="url('#paint5_linear_6_56')"/><path fill-rule="evenodd" clip-rule="evenodd" d="M30.081 23.794a5.838 5.838 0 0 0-4.156-1.723 5.884 5.884 0 0 0-5.876 5.876c0 1.035.27 2.046.785 2.937L20 33.93l3.115-.817a5.87 5.87 0 0 0 2.808.715h.002a5.884 5.884 0 0 0 5.876-5.876 5.84 5.84 0 0 0-1.72-4.157Zm-4.156 9.04h-.002a4.876 4.876 0 0 1-2.485-.68l-.179-.106-1.848.485.493-1.802-.116-.185a4.872 4.872 0 0 1-.747-2.6 4.89 4.89 0 0 1 4.886-4.882 4.85 4.85 0 0 1 3.453 1.432 4.854 4.854 0 0 1 1.429 3.455 4.89 4.89 0 0 1-4.884 4.884Zm2.679-3.657a24.509 24.509 0 0 0-1.003-.478c-.135-.049-.233-.073-.33.074-.098.147-.38.477-.466.576-.085.097-.17.11-.317.036-.147-.073-.62-.228-1.181-.729a4.424 4.424 0 0 1-.817-1.017c-.086-.147-.01-.226.064-.3.067-.065.147-.17.22-.256.074-.086.099-.147.148-.245.049-.098.024-.184-.013-.258-.036-.073-.33-.796-.452-1.09-.12-.286-.24-.247-.33-.252a5.961 5.961 0 0 0-.282-.005.54.54 0 0 0-.392.184c-.134.147-.514.502-.514 1.225 0 .722.527 1.42.6 1.518.073.098 1.035 1.581 2.508 2.217.35.152.624.242.837.31.352.111.672.095.925.058.282-.043.868-.355.99-.698.123-.343.123-.637.086-.699-.036-.06-.134-.098-.281-.171Z" fill="#fff"/><path d="M52.82 15.15V25h-.958v-4.606H46.02V25h-.971v-9.85h.97v4.383h5.842V15.15h.957Zm4.055 9.989c-.342 0-.661-.056-.957-.167a2.62 2.62 0 0 1-.763-.485 2.236 2.236 0 0 1-.5-.708 2.21 2.21 0 0 1-.18-.888c0-.314.074-.606.222-.874.148-.268.356-.5.624-.694a2.95 2.95 0 0 1 .957-.444 4.24 4.24 0 0 1 1.221-.166c.37 0 .745.032 1.124.097.38.065.717.157 1.013.277v-.652c0-.638-.18-1.142-.541-1.512-.36-.38-.86-.569-1.498-.569-.37 0-.75.074-1.138.222a5.49 5.49 0 0 0-1.18.638l-.333-.624c.935-.629 1.841-.943 2.72-.943.906 0 1.619.254 2.137.763.517.509.776 1.211.776 2.109v3.26c0 .26.116.389.347.389V25a2.255 2.255 0 0 1-.36.042c-.24 0-.43-.06-.57-.18-.129-.121-.198-.287-.207-.5l-.028-.57a3.266 3.266 0 0 1-1.263 1c-.5.231-1.04.347-1.623.347Zm.222-.722c.49 0 .939-.092 1.346-.277.416-.185.73-.43.943-.736a.791.791 0 0 0 .18-.263.68.68 0 0 0 .07-.278v-1.179a5.732 5.732 0 0 0-2.012-.375c-.666 0-1.207.14-1.623.417-.416.277-.624.643-.624 1.096 0 .222.041.43.124.624.093.194.213.365.361.513.157.14.342.25.555.333.213.084.44.125.68.125ZM68.334 25h-.916v-6.41h-3.843V25h-.93v-7.229h5.689V25Zm3.059-1.332 4.314-5.896h.764V25h-.93v-5.786L71.309 25h-.846v-7.229h.93v5.897Zm6.686-2.303c0-.509.088-.99.264-1.443.175-.453.42-.846.735-1.18.324-.341.708-.61 1.152-.804a3.63 3.63 0 0 1 1.47-.291c.685 0 1.281.157 1.79.471.509.306.893.722 1.152 1.25l-.916.29a2.14 2.14 0 0 0-.86-.86 2.332 2.332 0 0 0-1.207-.319c-.37 0-.717.074-1.04.222a2.69 2.69 0 0 0-.833.61c-.231.25-.416.55-.555.902-.13.352-.194.736-.194 1.152 0 .407.069.79.208 1.152.138.36.328.675.569.943.24.259.517.467.832.624a2.44 2.44 0 0 0 1.706.125c.232-.065.444-.152.639-.263.194-.12.36-.255.5-.403.138-.148.235-.305.29-.471l.93.277c-.102.259-.25.5-.444.721a3.26 3.26 0 0 1-.694.57c-.259.157-.55.277-.874.36a3.473 3.473 0 0 1-.985.139 3.596 3.596 0 0 1-1.457-.292 3.676 3.676 0 0 1-1.151-.818 3.99 3.99 0 0 1-.763-1.207 3.993 3.993 0 0 1-.264-1.457Zm9.932 3.774c-.343 0-.662-.056-.958-.167a2.62 2.62 0 0 1-.763-.485 2.236 2.236 0 0 1-.5-.708 2.208 2.208 0 0 1-.18-.888c0-.314.075-.606.222-.874.149-.268.357-.5.625-.694.268-.194.587-.342.957-.444.37-.11.777-.166 1.221-.166.37 0 .745.032 1.124.097.38.065.717.157 1.013.277v-.652c0-.638-.18-1.142-.541-1.512-.361-.38-.86-.569-1.499-.569-.37 0-.749.074-1.138.222a5.49 5.49 0 0 0-1.179.638l-.333-.624c.934-.629 1.84-.943 2.72-.943.906 0 1.618.254 2.136.763s.777 1.211.777 2.109v3.26c0 .26.116.389.347.389V25a2.254 2.254 0 0 1-.36.042c-.241 0-.43-.06-.57-.18-.129-.121-.198-.287-.208-.5l-.027-.57a3.266 3.266 0 0 1-1.263 1c-.5.231-1.04.347-1.623.347Zm.222-.722c.49 0 .939-.092 1.346-.277.416-.185.73-.43.943-.736a.792.792 0 0 0 .18-.263.679.679 0 0 0 .07-.278v-1.179a5.73 5.73 0 0 0-2.012-.375c-.666 0-1.207.14-1.623.417-.417.277-.625.643-.625 1.096 0 .222.042.43.125.624.093.194.213.365.36.513.158.14.343.25.556.333.213.084.44.125.68.125Zm8.036.583h-.915v-6.41h-2.54v-.819h5.994v.82H96.27V25Zm3.88-7.229h.93v2.567h1.567c.333 0 .648.051.944.153.296.102.555.25.777.444.222.194.398.44.527.735.13.287.194.62.194 1 0 .378-.064.716-.194 1.012a2.075 2.075 0 0 1-.527.721 2.304 2.304 0 0 1-.777.444 2.887 2.887 0 0 1-.944.153h-2.497v-7.229Zm2.497 6.424c.481 0 .851-.134 1.11-.402.269-.277.403-.652.403-1.124 0-.472-.134-.842-.403-1.11-.268-.277-.638-.416-1.11-.416h-1.567v3.052h1.567Zm-54.225 9.577a1.756 1.756 0 0 1 1.276.527c.167.157.292.342.375.555.093.212.139.444.139.693 0 .167-.023.333-.07.5a1.93 1.93 0 0 1-.18.486c-.083.148-.19.286-.319.416-.13.12-.282.217-.458.291.407.111.726.324.957.638.232.315.347.694.347 1.138 0 .296-.055.564-.166.805-.102.24-.25.448-.444.624a2.035 2.035 0 0 1-.666.416 2.5 2.5 0 0 1-.847.139h-3.482v-7.228h3.538Zm-.375 3.19c.38 0 .68-.12.902-.36.222-.24.333-.546.333-.916 0-.324-.092-.606-.277-.846-.185-.24-.472-.36-.86-.36h-2.345v2.483h2.247Zm.222 3.33c.195 0 .37-.037.528-.11.166-.075.305-.172.416-.292.11-.13.199-.273.263-.43a1.3 1.3 0 0 0 .098-.5c0-.333-.116-.629-.347-.888-.222-.259-.532-.388-.93-.388H45.8v2.608h2.47Zm10.797-9.073h.915l1.388 3.496 1.4-3.496h.93l-1.72 4.204 1.887 4.453 3.566-8.727h1.054L64.31 41h-.86l-2.067-4.87L59.3 41h-.846l-4.162-9.85h1.04l3.58 8.726 1.873-4.453-1.72-4.204ZM75.754 41h-.944v-4.037c0-.824-.143-1.439-.43-1.846-.277-.407-.689-.61-1.234-.61-.269 0-.537.055-.805.166a2.838 2.838 0 0 0-.736.43 3.154 3.154 0 0 0-.61.652c-.166.25-.291.523-.375.82V41h-.943V30.872h.943v4.537a3.277 3.277 0 0 1 1.194-1.29 3.083 3.083 0 0 1 1.65-.472c.417 0 .768.078 1.055.236.287.148.523.36.708.638.185.268.319.596.402.985.083.379.125.8.125 1.262V41Zm3.83.139c-.343 0-.662-.056-.958-.167a2.62 2.62 0 0 1-.763-.485 2.238 2.238 0 0 1-.5-.708 2.21 2.21 0 0 1-.18-.888c0-.314.074-.606.222-.874.148-.268.356-.5.624-.694.269-.194.588-.342.958-.444a4.24 4.24 0 0 1 1.22-.166c.37 0 .745.032 1.124.097.38.065.717.157 1.013.277v-.652c0-.638-.18-1.142-.54-1.512-.362-.38-.861-.569-1.5-.569-.37 0-.749.074-1.137.222a5.49 5.49 0 0 0-1.18.638l-.332-.624c.934-.629 1.84-.943 2.72-.943.906 0 1.618.254 2.136.763s.777 1.211.777 2.109v3.26c0 .26.115.388.347.388V41a2.254 2.254 0 0 1-.361.042c-.24 0-.43-.06-.57-.18-.129-.121-.198-.288-.207-.5l-.028-.57a3.267 3.267 0 0 1-1.262 1c-.5.231-1.041.347-1.624.347Zm.221-.722c.49 0 .939-.092 1.346-.277.416-.185.73-.43.944-.736a.792.792 0 0 0 .18-.263.679.679 0 0 0 .07-.278v-1.179a5.73 5.73 0 0 0-2.013-.374c-.665 0-1.207.138-1.623.416-.416.277-.624.642-.624 1.096 0 .222.041.43.125.624.092.194.212.365.36.513.158.14.343.25.555.333.213.084.44.125.68.125Zm8.935.236a4.234 4.234 0 0 1-.25.111 3.733 3.733 0 0 1-.36.139 4.295 4.295 0 0 1-.472.125c-.175.037-.36.055-.555.055-.203 0-.397-.027-.582-.083a1.422 1.422 0 0 1-.486-.25 1.335 1.335 0 0 1-.458-1.054V34.52h-.999v-.75h1V31.33h.943v2.442h1.665v.749H86.52v4.911c.018.268.11.467.277.597.176.12.375.18.597.18.268 0 .504-.042.707-.125.204-.092.333-.157.389-.194l.25.763Zm3.58.486a5.033 5.033 0 0 1-1.652-.278 3.97 3.97 0 0 1-1.387-.804l.43-.639c.407.333.819.583 1.235.75.425.166.879.25 1.36.25.582 0 1.045-.116 1.387-.348.352-.24.527-.578.527-1.012a.84.84 0 0 0-.138-.5 1.155 1.155 0 0 0-.417-.36 2.822 2.822 0 0 0-.68-.264 13.3 13.3 0 0 0-.943-.25 13.906 13.906 0 0 1-1.082-.305 3.468 3.468 0 0 1-.763-.347 1.347 1.347 0 0 1-.444-.472 1.672 1.672 0 0 1-.139-.721c0-.36.07-.68.208-.957.148-.278.342-.505.583-.68.25-.185.536-.324.86-.417a3.923 3.923 0 0 1 1.055-.138c.554 0 1.059.092 1.512.277.453.176.818.412 1.096.708l-.458.555a2.53 2.53 0 0 0-.985-.625 3.444 3.444 0 0 0-1.193-.208c-.25 0-.481.028-.694.084a1.646 1.646 0 0 0-.569.235 1.205 1.205 0 0 0-.374.43 1.21 1.21 0 0 0-.14.597c0 .194.033.351.098.472.065.12.171.226.319.319.148.083.333.162.555.236.231.065.509.134.833.208.462.11.869.222 1.22.333.352.11.643.24.874.388.24.148.421.329.542.541.12.213.18.472.18.777 0 .666-.254 1.194-.763 1.582-.509.389-1.193.583-2.053.583Zm7.498-9.99h.819L104.73 41h-1.027l-1.276-3.08h-4.426L96.738 41h-1.04l4.12-9.85Zm2.387 6.008-1.984-4.87-2.012 4.87h3.996Zm7.433 3.982c-.61 0-1.151-.153-1.623-.458a3.807 3.807 0 0 1-1.124-1.18v4.454h-.943V33.772h.846v1.4c.296-.452.68-.818 1.152-1.095.471-.287.985-.43 1.54-.43.499 0 .957.106 1.373.319.416.203.777.48 1.082.832.306.342.542.74.708 1.193.176.454.264.92.264 1.402 0 .508-.079.99-.236 1.443a3.61 3.61 0 0 1-.68 1.193 3.225 3.225 0 0 1-1.041.818 2.96 2.96 0 0 1-1.318.292Zm-.263-.833c.388 0 .74-.083 1.054-.25a2.58 2.58 0 0 0 .819-.651c.231-.278.407-.588.527-.93.12-.352.18-.712.18-1.082a3.059 3.059 0 0 0-.777-2.04 2.67 2.67 0 0 0-.86-.638 2.38 2.38 0 0 0-1.054-.236c-.241 0-.495.051-.763.153a2.973 2.973 0 0 0-.736.388 2.6 2.6 0 0 0-.582.569c-.158.213-.255.44-.292.68v2.22c.111.259.25.5.416.721.176.222.37.416.583.583.222.157.458.282.708.374.249.093.508.14.777.14Zm8.826.833c-.61 0-1.151-.153-1.623-.458a3.807 3.807 0 0 1-1.124-1.18v4.454h-.943V33.772h.846v1.4c.296-.452.68-.818 1.152-1.095.471-.287.985-.43 1.54-.43.499 0 .957.106 1.373.319.416.203.777.48 1.082.832.306.342.542.74.708 1.193.176.454.264.92.264 1.402 0 .508-.079.99-.236 1.443a3.61 3.61 0 0 1-.68 1.193 3.225 3.225 0 0 1-1.041.818 2.96 2.96 0 0 1-1.318.292Zm-.263-.833c.388 0 .74-.083 1.054-.25a2.58 2.58 0 0 0 .819-.651c.231-.278.407-.588.527-.93.12-.352.18-.712.18-1.082a3.059 3.059 0 0 0-.777-2.04 2.67 2.67 0 0 0-.86-.638 2.38 2.38 0 0 0-1.054-.236c-.241 0-.495.051-.763.153a2.973 2.973 0 0 0-.736.388 2.6 2.6 0 0 0-.582.569c-.158.213-.255.44-.292.68v2.22c.111.259.25.5.416.721.176.222.37.416.583.583.222.157.458.282.708.374.249.093.508.14.777.14Z" fill="#fff"/><rect width="142.801" height="52" rx="26" fill="#fff"/><rect width="142.801" height="52" rx="26" fill="url('#paint6_linear_6_56')"/><path fill-rule="evenodd" clip-rule="evenodd" d="M30.081 21.794a5.838 5.838 0 0 0-4.156-1.723 5.884 5.884 0 0 0-5.876 5.876c0 1.035.27 2.046.785 2.937L20 31.93l3.115-.817a5.87 5.87 0 0 0 2.808.715h.002a5.884 5.884 0 0 0 5.876-5.876 5.84 5.84 0 0 0-1.72-4.157Zm-4.156 9.04h-.002a4.876 4.876 0 0 1-2.485-.68l-.179-.106-1.848.485.493-1.802-.116-.185a4.872 4.872 0 0 1-.747-2.6 4.89 4.89 0 0 1 4.886-4.882 4.85 4.85 0 0 1 3.453 1.432 4.854 4.854 0 0 1 1.429 3.455 4.89 4.89 0 0 1-4.884 4.884Zm2.679-3.657a24.509 24.509 0 0 0-1.003-.478c-.135-.049-.233-.073-.33.074-.098.147-.38.477-.466.576-.085.097-.17.11-.317.036-.147-.073-.62-.228-1.181-.729a4.424 4.424 0 0 1-.817-1.017c-.086-.147-.01-.226.064-.3.067-.065.147-.17.22-.256.074-.086.099-.147.148-.245.049-.098.024-.184-.013-.258-.036-.073-.33-.796-.452-1.09-.12-.286-.24-.247-.33-.252a5.961 5.961 0 0 0-.282-.005.54.54 0 0 0-.392.184c-.134.147-.514.502-.514 1.225 0 .722.527 1.42.6 1.518.073.098 1.035 1.581 2.508 2.217.35.152.624.242.837.31.352.111.672.095.925.058.282-.043.868-.355.99-.698.123-.343.123-.637.086-.699-.036-.06-.134-.098-.281-.171Z" fill="#fff"/><path fill-rule="evenodd" clip-rule="evenodd" d="M30.081 21.794a5.838 5.838 0 0 0-4.156-1.723 5.884 5.884 0 0 0-5.876 5.876c0 1.035.27 2.046.785 2.937L20 31.93l3.115-.817a5.87 5.87 0 0 0 2.808.715h.002a5.884 5.884 0 0 0 5.876-5.876 5.84 5.84 0 0 0-1.72-4.157Zm-4.156 9.04h-.002a4.876 4.876 0 0 1-2.485-.68l-.179-.106-1.848.485.493-1.802-.116-.185a4.872 4.872 0 0 1-.747-2.6 4.89 4.89 0 0 1 4.886-4.882 4.85 4.85 0 0 1 3.453 1.432 4.854 4.854 0 0 1 1.429 3.455 4.89 4.89 0 0 1-4.884 4.884Zm2.679-3.657a24.509 24.509 0 0 0-1.003-.478c-.135-.049-.233-.073-.33.074-.098.147-.38.477-.466.576-.085.097-.17.11-.317.036-.147-.073-.62-.228-1.181-.729a4.424 4.424 0 0 1-.817-1.017c-.086-.147-.01-.226.064-.3.067-.065.147-.17.22-.256.074-.086.099-.147.148-.245.049-.098.024-.184-.013-.258-.036-.073-.33-.796-.452-1.09-.12-.286-.24-.247-.33-.252a5.961 5.961 0 0 0-.282-.005.54.54 0 0 0-.392.184c-.134.147-.514.502-.514 1.225 0 .722.527 1.42.6 1.518.073.098 1.035 1.581 2.508 2.217.35.152.624.242.837.31.352.111.672.095.925.058.282-.043.868-.355.99-.698.123-.343.123-.637.086-.699-.036-.06-.134-.098-.281-.171Z" fill="url('#paint7_linear_6_56')"/><path fill-rule="evenodd" clip-rule="evenodd" d="M30.081 21.794a5.838 5.838 0 0 0-4.156-1.723 5.884 5.884 0 0 0-5.876 5.876c0 1.035.27 2.046.785 2.937L20 31.93l3.115-.817a5.87 5.87 0 0 0 2.808.715h.002a5.884 5.884 0 0 0 5.876-5.876 5.84 5.84 0 0 0-1.72-4.157Zm-4.156 9.04h-.002a4.876 4.876 0 0 1-2.485-.68l-.179-.106-1.848.485.493-1.802-.116-.185a4.872 4.872 0 0 1-.747-2.6 4.89 4.89 0 0 1 4.886-4.882 4.85 4.85 0 0 1 3.453 1.432 4.854 4.854 0 0 1 1.429 3.455 4.89 4.89 0 0 1-4.884 4.884Zm2.679-3.657a24.509 24.509 0 0 0-1.003-.478c-.135-.049-.233-.073-.33.074-.098.147-.38.477-.466.576-.085.097-.17.11-.317.036-.147-.073-.62-.228-1.181-.729a4.424 4.424 0 0 1-.817-1.017c-.086-.147-.01-.226.064-.3.067-.065.147-.17.22-.256.074-.086.099-.147.148-.245.049-.098.024-.184-.013-.258-.036-.073-.33-.796-.452-1.09-.12-.286-.24-.247-.33-.252a5.961 5.961 0 0 0-.282-.005.54.54 0 0 0-.392.184c-.134.147-.514.502-.514 1.225 0 .722.527 1.42.6 1.518.073.098 1.035 1.581 2.508 2.217.35.152.624.242.837.31.352.111.672.095.925.058.282-.043.868-.355.99-.698.123-.343.123-.637.086-.699-.036-.06-.134-.098-.281-.171Z" fill="#fff"/><path d="M52.82 13.15V23h-.958v-4.606H46.02V23h-.971v-9.85h.97v4.383h5.842V13.15h.957Zm4.055 9.989c-.342 0-.661-.056-.957-.167a2.62 2.62 0 0 1-.763-.485 2.236 2.236 0 0 1-.5-.708 2.21 2.21 0 0 1-.18-.888c0-.314.074-.606.222-.874.148-.268.356-.5.624-.694a2.95 2.95 0 0 1 .957-.444 4.24 4.24 0 0 1 1.221-.166c.37 0 .745.032 1.124.097.38.065.717.157 1.013.277v-.652c0-.638-.18-1.142-.541-1.512-.36-.38-.86-.569-1.498-.569-.37 0-.75.074-1.138.222a5.49 5.49 0 0 0-1.18.638l-.333-.624c.935-.629 1.841-.943 2.72-.943.906 0 1.619.254 2.137.763.517.509.776 1.211.776 2.109v3.26c0 .26.116.389.347.389V23a2.255 2.255 0 0 1-.36.042c-.24 0-.43-.06-.57-.18-.129-.121-.198-.287-.207-.5l-.028-.57a3.266 3.266 0 0 1-1.263 1c-.5.231-1.04.347-1.623.347Zm.222-.722c.49 0 .939-.092 1.346-.277.416-.185.73-.43.943-.736a.791.791 0 0 0 .18-.263.68.68 0 0 0 .07-.278v-1.179a5.732 5.732 0 0 0-2.012-.375c-.666 0-1.207.14-1.623.417-.416.277-.624.643-.624 1.096 0 .222.041.43.124.624.093.194.213.365.361.513.157.14.342.25.555.333.213.084.44.125.68.125ZM68.334 23h-.916v-6.41h-3.843V23h-.93v-7.229h5.689V23Zm3.059-1.332 4.314-5.896h.764V23h-.93v-5.786L71.309 23h-.846v-7.229h.93v5.897Zm6.686-2.303c0-.509.088-.99.264-1.443.175-.453.42-.846.735-1.18.324-.341.708-.61 1.152-.804a3.63 3.63 0 0 1 1.47-.291c.685 0 1.281.157 1.79.471.509.306.893.722 1.152 1.25l-.916.29a2.14 2.14 0 0 0-.86-.86 2.332 2.332 0 0 0-1.207-.319c-.37 0-.717.074-1.04.222a2.69 2.69 0 0 0-.833.61c-.231.25-.416.55-.555.902-.13.352-.194.736-.194 1.152 0 .407.069.79.208 1.152.138.36.328.675.569.943.24.259.517.467.832.624a2.44 2.44 0 0 0 1.706.125c.232-.065.444-.152.639-.263.194-.12.36-.255.5-.403.138-.148.235-.305.29-.471l.93.277c-.102.259-.25.5-.444.721a3.26 3.26 0 0 1-.694.57c-.259.157-.55.277-.874.36a3.473 3.473 0 0 1-.985.139 3.596 3.596 0 0 1-1.457-.292 3.676 3.676 0 0 1-1.151-.818 3.99 3.99 0 0 1-.763-1.207 3.993 3.993 0 0 1-.264-1.457Zm9.932 3.774c-.343 0-.662-.056-.958-.167a2.62 2.62 0 0 1-.763-.485 2.236 2.236 0 0 1-.5-.708 2.208 2.208 0 0 1-.18-.888c0-.314.075-.606.222-.874.149-.268.357-.5.625-.694.268-.194.587-.342.957-.444.37-.11.777-.166 1.221-.166.37 0 .745.032 1.124.097.38.065.717.157 1.013.277v-.652c0-.638-.18-1.142-.541-1.512-.361-.38-.86-.569-1.499-.569-.37 0-.749.074-1.138.222a5.49 5.49 0 0 0-1.179.638l-.333-.624c.934-.629 1.84-.943 2.72-.943.906 0 1.618.254 2.136.763s.777 1.211.777 2.109v3.26c0 .26.116.389.347.389V23a2.254 2.254 0 0 1-.36.042c-.241 0-.43-.06-.57-.18-.129-.121-.198-.287-.208-.5l-.027-.57a3.266 3.266 0 0 1-1.263 1c-.5.231-1.04.347-1.623.347Zm.222-.722c.49 0 .939-.092 1.346-.277.416-.185.73-.43.943-.736a.792.792 0 0 0 .18-.263.679.679 0 0 0 .07-.278v-1.179a5.73 5.73 0 0 0-2.012-.375c-.666 0-1.207.14-1.623.417-.417.277-.625.643-.625 1.096 0 .222.042.43.125.624.093.194.213.365.36.513.158.14.343.25.556.333.213.084.44.125.68.125Zm8.036.583h-.915v-6.41h-2.54v-.819h5.994v.82H96.27V23Zm3.88-7.229h.93v2.567h1.567c.333 0 .648.051.944.153.296.102.555.25.777.444.222.194.398.44.527.735.13.287.194.62.194 1 0 .378-.064.716-.194 1.012a2.075 2.075 0 0 1-.527.721 2.304 2.304 0 0 1-.777.444 2.887 2.887 0 0 1-.944.153h-2.497v-7.229Zm2.497 6.424c.481 0 .851-.134 1.11-.402.269-.277.403-.652.403-1.124 0-.472-.134-.842-.403-1.11-.268-.277-.638-.416-1.11-.416h-1.567v3.052h1.567Zm-54.225 9.576a1.756 1.756 0 0 1 1.276.528c.167.157.292.342.375.555.093.212.139.444.139.693 0 .167-.023.333-.07.5a1.93 1.93 0 0 1-.18.486c-.083.148-.19.286-.319.416-.13.12-.282.217-.458.291.407.111.726.324.957.638.232.315.347.694.347 1.138 0 .296-.055.564-.166.805-.102.24-.25.448-.444.624a2.035 2.035 0 0 1-.666.416 2.5 2.5 0 0 1-.847.139h-3.482v-7.229h3.538Zm-.375 3.192c.38 0 .68-.12.902-.361.222-.24.333-.546.333-.916 0-.324-.092-.606-.277-.846-.185-.24-.472-.36-.86-.36h-2.345v2.483h2.247Zm.222 3.33c.195 0 .37-.038.528-.112.166-.074.305-.17.416-.29.11-.13.199-.274.263-.431a1.3 1.3 0 0 0 .098-.5c0-.333-.116-.629-.347-.888-.222-.259-.532-.388-.93-.388H45.8v2.608h2.47Zm10.797-9.074h.915l1.388 3.496 1.4-3.496h.93l-1.72 4.204 1.887 4.453 3.566-8.727h1.054L64.31 39h-.86l-2.067-4.87L59.3 39h-.846l-4.162-9.85h1.04l3.58 8.726 1.873-4.453-1.72-4.204ZM75.754 39h-.944v-4.037c0-.824-.143-1.439-.43-1.846-.277-.407-.689-.61-1.234-.61-.269 0-.537.055-.805.166a2.838 2.838 0 0 0-.736.43 3.154 3.154 0 0 0-.61.652c-.166.25-.291.523-.375.82V39h-.943V28.872h.943v4.537a3.277 3.277 0 0 1 1.194-1.29 3.083 3.083 0 0 1 1.65-.472c.417 0 .768.078 1.055.236.287.148.523.36.708.638.185.268.319.596.402.985.083.379.125.8.125 1.262V39Zm3.83.139c-.343 0-.662-.056-.958-.167a2.62 2.62 0 0 1-.763-.485 2.238 2.238 0 0 1-.5-.708 2.21 2.21 0 0 1-.18-.888c0-.314.074-.606.222-.874.148-.268.356-.5.624-.694.269-.194.588-.342.958-.444a4.24 4.24 0 0 1 1.22-.166c.37 0 .745.032 1.124.097.38.065.717.157 1.013.277v-.652c0-.638-.18-1.142-.54-1.512-.362-.38-.861-.569-1.5-.569-.37 0-.749.074-1.137.222a5.49 5.49 0 0 0-1.18.638l-.332-.624c.934-.629 1.84-.943 2.72-.943.906 0 1.618.254 2.136.763s.777 1.211.777 2.109v3.26c0 .26.115.388.347.388V39a2.254 2.254 0 0 1-.361.042c-.24 0-.43-.06-.57-.18-.129-.121-.198-.288-.207-.5l-.028-.57a3.267 3.267 0 0 1-1.262 1c-.5.231-1.041.347-1.624.347Zm.221-.722c.49 0 .939-.092 1.346-.277.416-.185.73-.43.944-.736a.792.792 0 0 0 .18-.263.679.679 0 0 0 .07-.278v-1.179a5.73 5.73 0 0 0-2.013-.374c-.665 0-1.207.138-1.623.416-.416.277-.624.642-.624 1.096 0 .222.041.43.125.624.092.194.212.365.36.513.158.14.343.25.555.333.213.084.44.125.68.125Zm8.935.236a4.234 4.234 0 0 1-.25.111 3.733 3.733 0 0 1-.36.139 4.295 4.295 0 0 1-.472.125c-.175.037-.36.055-.555.055-.203 0-.397-.027-.582-.083a1.422 1.422 0 0 1-.486-.25 1.335 1.335 0 0 1-.458-1.054V32.52h-.999v-.75h1V29.33h.943v2.442h1.665v.749H86.52v4.911c.018.268.11.467.277.597.176.12.375.18.597.18.268 0 .504-.042.707-.125.204-.092.333-.157.389-.194l.25.763Zm3.58.486a5.033 5.033 0 0 1-1.652-.278 3.97 3.97 0 0 1-1.387-.804l.43-.639c.407.333.819.583 1.235.75.425.166.879.25 1.36.25.582 0 1.045-.116 1.387-.348.352-.24.527-.578.527-1.012a.84.84 0 0 0-.138-.5 1.155 1.155 0 0 0-.417-.36 2.822 2.822 0 0 0-.68-.264 13.3 13.3 0 0 0-.943-.25 13.906 13.906 0 0 1-1.082-.305 3.468 3.468 0 0 1-.763-.347 1.347 1.347 0 0 1-.444-.472 1.672 1.672 0 0 1-.139-.721c0-.36.07-.68.208-.957.148-.278.342-.505.583-.68.25-.185.536-.324.86-.417a3.923 3.923 0 0 1 1.055-.138c.554 0 1.059.092 1.512.277.453.176.818.412 1.096.708l-.458.555a2.53 2.53 0 0 0-.985-.625 3.444 3.444 0 0 0-1.193-.208c-.25 0-.481.028-.694.084a1.646 1.646 0 0 0-.569.235 1.205 1.205 0 0 0-.374.43 1.21 1.21 0 0 0-.14.597c0 .194.033.351.098.472.065.12.171.226.319.319.148.083.333.162.555.236.231.065.509.134.833.208.462.11.869.222 1.22.333.352.11.643.24.874.388.24.148.421.329.542.541.12.213.18.472.18.777 0 .666-.254 1.194-.763 1.582-.509.389-1.193.583-2.053.583Zm7.498-9.99h.819L104.73 39h-1.027l-1.276-3.08h-4.426L96.738 39h-1.04l4.12-9.85Zm2.387 6.008-1.984-4.87-2.012 4.87h3.996Zm7.433 3.982c-.61 0-1.151-.153-1.623-.458a3.807 3.807 0 0 1-1.124-1.18v4.454h-.943V31.772h.846v1.4c.296-.452.68-.818 1.152-1.095.471-.287.985-.43 1.54-.43.499 0 .957.106 1.373.319.416.203.777.48 1.082.832.306.342.542.74.708 1.193.176.454.264.92.264 1.402 0 .508-.079.99-.236 1.443a3.61 3.61 0 0 1-.68 1.193 3.225 3.225 0 0 1-1.041.818 2.96 2.96 0 0 1-1.318.292Zm-.263-.833c.388 0 .74-.083 1.054-.25a2.58 2.58 0 0 0 .819-.651c.231-.278.407-.588.527-.93.12-.352.18-.712.18-1.082a3.059 3.059 0 0 0-.777-2.04 2.67 2.67 0 0 0-.86-.638 2.38 2.38 0 0 0-1.054-.236c-.241 0-.495.051-.763.153a2.973 2.973 0 0 0-.736.388 2.6 2.6 0 0 0-.582.569c-.158.213-.255.44-.292.68v2.22c.111.259.25.5.416.721.176.222.37.416.583.583.222.157.458.282.708.374.249.093.508.14.777.14Zm8.826.833c-.61 0-1.151-.153-1.623-.458a3.807 3.807 0 0 1-1.124-1.18v4.454h-.943V31.772h.846v1.4c.296-.452.68-.818 1.152-1.095.471-.287.985-.43 1.54-.43.499 0 .957.106 1.373.319.416.203.777.48 1.082.832.306.342.542.74.708 1.193.176.454.264.92.264 1.402 0 .508-.079.99-.236 1.443a3.61 3.61 0 0 1-.68 1.193 3.225 3.225 0 0 1-1.041.818 2.96 2.96 0 0 1-1.318.292Zm-.263-.833c.388 0 .74-.083 1.054-.25a2.58 2.58 0 0 0 .819-.651c.231-.278.407-.588.527-.93.12-.352.18-.712.18-1.082a3.059 3.059 0 0 0-.777-2.04 2.67 2.67 0 0 0-.86-.638 2.38 2.38 0 0 0-1.054-.236c-.241 0-.495.051-.763.153a2.973 2.973 0 0 0-.736.388 2.6 2.6 0 0 0-.582.569c-.158.213-.255.44-.292.68v2.22c.111.259.25.5.416.721.176.222.37.416.583.583.222.157.458.282.708.374.249.093.508.14.777.14Z" fill="#fff"/><defs><linearGradient id="paint0_linear_6_56" x1="13.291" y1="49" x2="94.992" y2="-27.129" gradientUnits="userSpaceOnUse"><stop stop-color="#27D045"/><stop offset="1" stop-color="#5FFC7B"/></linearGradient><linearGradient id="paint1_linear_6_56" x1="13.291" y1="49" x2="94.992" y2="-27.129" gradientUnits="userSpaceOnUse"><stop stop-color="#25C040"/><stop offset="1" stop-color="#55EB70"/></linearGradient><linearGradient id="paint2_linear_6_56" x1="30.4" y1="33.929" x2="44.647" y2="29.018" gradientUnits="userSpaceOnUse"><stop stop-color="#27D045"/><stop offset="1" stop-color="#5FFC7B"/></linearGradient><linearGradient id="paint3_linear_6_56" x1="4.08" y1="54" x2="105.358" y2="-42.325" gradientUnits="userSpaceOnUse"><stop stop-color="#27D045"/><stop offset="1" stop-color="#5FFC7B"/></linearGradient><linearGradient id="paint4_linear_6_56" x1="4.08" y1="54" x2="105.358" y2="-42.325" gradientUnits="userSpaceOnUse"><stop stop-color="#25C040"/><stop offset="1" stop-color="#55EB70"/></linearGradient><linearGradient id="paint5_linear_6_56" x1="20.337" y1="33.929" x2="34.585" y2="29.018" gradientUnits="userSpaceOnUse"><stop stop-color="#27D045"/><stop offset="1" stop-color="#5FFC7B"/></linearGradient><linearGradient id="paint6_linear_6_56" x1="4.08" y1="52" x2="105.358" y2="-44.325" gradientUnits="userSpaceOnUse"><stop stop-color="#27D045"/><stop offset="1" stop-color="#5FFC7B"/></linearGradient><linearGradient id="paint7_linear_6_56" x1="20.337" y1="31.929" x2="34.585" y2="27.018" gradientUnits="userSpaceOnUse"><stop stop-color="#27D045"/><stop offset="1" stop-color="#5FFC7B"/></linearGradient><filter id="filter0_f_6_56" x="4.726" y="1.664" width="132.148" height="52.672" filterUnits="userSpaceOnUse" color-interpolation-filters="sRGB"><feFlood flood-opacity="0" result="BackgroundImageFix"/><feBlend in="SourceGraphic" in2="BackgroundImageFix" result="shape"/><feGaussianBlur stdDeviation="2.668" result="effect1_foregroundBlur_6_56"/></filter></defs></svg>