<svg width="42" height="30" fill="none" xmlns="http://www.w3.org/2000/svg"><g filter="url('#filter0_f_12_946')"><rect x="6.181" y="5.848" width="30.058" height="18.423" rx="9.211" fill="url('#paint0_linear_12_946')"/></g><rect x="4.243" y="1.97" width="33.936" height="22.301" rx="11.15" fill="url('#paint1_linear_12_946')"/><rect x="4" y="1" width="33.936" height="22.301" rx="11.15" fill="url('#paint2_linear_12_946')"/><path fill-rule="evenodd" clip-rule="evenodd" d="M25.46 7.77a5.69 5.69 0 0 0-4.05-1.68 5.735 5.735 0 0 0-5.727 5.727c0 1.01.263 1.994.764 2.863l-.812 2.967 3.036-.796a5.723 5.723 0 0 0 2.736.697h.003a5.735 5.735 0 0 0 5.726-5.727c0-1.53-.594-2.969-1.675-4.051Zm-4.05 8.81h-.002c-.854 0-1.692-.229-2.423-.663l-.174-.103-1.801.473.48-1.757-.113-.18a4.748 4.748 0 0 1-.727-2.533 4.767 4.767 0 0 1 4.762-4.76c1.27.001 2.466.497 3.365 1.397a4.731 4.731 0 0 1 1.392 3.367 4.767 4.767 0 0 1-4.76 4.76Zm2.61-3.564a23.937 23.937 0 0 0-.977-.466c-.131-.047-.227-.071-.322.072-.096.143-.37.466-.453.561-.084.096-.167.108-.31.036-.143-.072-.604-.223-1.151-.71a4.31 4.31 0 0 1-.796-.992c-.084-.143-.009-.22.063-.292.064-.064.143-.167.214-.25.072-.084.096-.143.143-.239.048-.096.024-.18-.012-.25-.035-.072-.321-.777-.44-1.063-.117-.28-.235-.241-.323-.246a5.76 5.76 0 0 0-.274-.005.526.526 0 0 0-.382.18c-.13.142-.5.489-.5 1.193 0 .704.512 1.385.584 1.48.072.096 1.009 1.541 2.444 2.16.342.148.608.236.816.302.343.11.655.094.901.057.275-.041.847-.346.966-.68.12-.335.12-.621.084-.68-.036-.06-.131-.096-.275-.168Z" fill="snow"/><defs><linearGradient id="paint0_linear_12_946" x1="7.04" y1="24.271" x2="37.815" y2="6.881" gradientUnits="userSpaceOnUse"><stop stop-color="#27D045"/><stop offset="1" stop-color="#5FFC7B"/></linearGradient><linearGradient id="paint1_linear_12_946" x1="5.213" y1="24.271" x2="41.088" y2="5.363" gradientUnits="userSpaceOnUse"><stop stop-color="#25C040"/><stop offset="1" stop-color="#55EB70"/></linearGradient><linearGradient id="paint2_linear_12_946" x1="4.97" y1="23.301" x2="40.845" y2="4.394" gradientUnits="userSpaceOnUse"><stop stop-color="#27D045"/><stop offset="1" stop-color="#5FFC7B"/></linearGradient><filter id="filter0_f_12_946" x=".98" y=".647" width="40.46" height="28.824" filterUnits="userSpaceOnUse" color-interpolation-filters="sRGB"><feFlood flood-opacity="0" result="BackgroundImageFix"/><feBlend in="SourceGraphic" in2="BackgroundImageFix" result="shape"/><feGaussianBlur stdDeviation="2.6" result="effect1_foregroundBlur_12_946"/></filter></defs></svg>