<svg width="42" height="30" viewBox="0 0 42 30" fill="none" xmlns="http://www.w3.org/2000/svg">
<g filter="url(#filter0_f_12_1013)">
<rect x="6.18115" y="5.84814" width="30.0579" height="18.4226" rx="9.2113" fill="url(#paint0_linear_12_1013)"/>
<rect x="6.18115" y="5.84814" width="30.0579" height="18.4226" rx="9.2113" fill="url(#paint1_linear_12_1013)"/>
</g>
<rect x="4.24292" y="1.9697" width="33.9364" height="22.301" rx="11.1505" fill="url(#paint2_linear_12_1013)"/>
<rect x="4.24292" y="1.9697" width="33.9364" height="22.301" rx="11.1505" fill="url(#paint3_linear_12_1013)"/>
<rect x="4" y="1" width="33.9364" height="22.301" rx="11.1505" fill="url(#paint4_linear_12_1013)"/>
<path d="M18.7409 6.99622C18.6966 6.93927 18.6407 6.89239 18.5769 6.85869C18.5131 6.82499 18.4429 6.80526 18.3709 6.80079C18.2989 6.79632 18.2268 6.80722 18.1593 6.83277C18.0918 6.85832 18.0306 6.89793 17.9796 6.94897L17.2041 7.72522C16.8419 8.08822 16.7084 8.60197 16.8666 9.05272C17.5234 10.9184 18.5918 12.6123 19.9926 14.0087C21.389 15.4095 23.0829 16.4779 24.9486 17.1347C25.3994 17.293 25.9131 17.1595 26.2761 16.7972L27.0516 16.0217C27.1026 15.9707 27.1423 15.9095 27.1678 15.842C27.1934 15.7746 27.2043 15.7024 27.1998 15.6304C27.1953 15.5584 27.1756 15.4882 27.1419 15.4244C27.1082 15.3606 27.0613 15.3047 27.0044 15.2605L25.2741 13.915C25.2133 13.8678 25.1425 13.835 25.0671 13.8192C24.9918 13.8033 24.9138 13.8048 24.8391 13.8235L23.1966 14.2337C22.9774 14.2885 22.7477 14.2856 22.5299 14.2253C22.3121 14.165 22.1137 14.0493 21.9539 13.8895L20.1119 12.0467C19.9519 11.887 19.8361 11.6886 19.7756 11.4708C19.7152 11.253 19.7122 11.0233 19.7669 10.804L20.1779 9.16147C20.1965 9.08677 20.198 9.0088 20.1822 8.93344C20.1663 8.85809 20.1335 8.78732 20.0864 8.72647L18.7409 6.99622ZM17.4134 6.38347C17.5446 6.25218 17.7023 6.15032 17.8759 6.08464C18.0495 6.01897 18.2352 5.99098 18.4204 6.00254C18.6057 6.0141 18.7864 6.06495 18.9505 6.1517C19.1147 6.23846 19.2584 6.35913 19.3724 6.50572L20.7179 8.23522C20.9646 8.55247 21.0516 8.96572 20.9541 9.35572L20.5439 10.9982C20.5226 11.0833 20.5238 11.1724 20.5472 11.2569C20.5706 11.3414 20.6154 11.4184 20.6774 11.4805L22.5201 13.3232C22.5822 13.3853 22.6594 13.4302 22.744 13.4536C22.8287 13.477 22.9179 13.4781 23.0031 13.4567L24.6449 13.0465C24.8373 12.9984 25.0382 12.9946 25.2323 13.0355C25.4264 13.0765 25.6087 13.161 25.7654 13.2827L27.4949 14.6282C28.1166 15.112 28.1736 16.0307 27.6171 16.5865L26.8416 17.362C26.2866 17.917 25.4571 18.1607 24.6839 17.8885C22.7047 17.1921 20.9078 16.0591 19.4264 14.5735C17.9408 13.0922 16.8078 11.2956 16.1114 9.31672C15.8399 8.54422 16.0836 7.71397 16.6386 7.15897L17.4141 6.38347H17.4134Z" fill="white"/>
<defs>
<filter id="filter0_f_12_1013" x="0.980251" y="0.647235" width="40.4597" height="28.8244" filterUnits="userSpaceOnUse" color-interpolation-filters="sRGB">
<feFlood flood-opacity="0" result="BackgroundImageFix"/>
<feBlend mode="normal" in="SourceGraphic" in2="BackgroundImageFix" result="shape"/>
<feGaussianBlur stdDeviation="2.60045" result="effect1_foregroundBlur_12_1013"/>
</filter>
<linearGradient id="paint0_linear_12_1013" x1="7.03995" y1="24.2707" x2="37.8149" y2="6.88081" gradientUnits="userSpaceOnUse">
<stop stop-color="#27D045"/>
<stop offset="1" stop-color="#5FFC7B"/>
</linearGradient>
<linearGradient id="paint1_linear_12_1013" x1="37.624" y1="5.70888" x2="11.1891" y2="27.4552" gradientUnits="userSpaceOnUse">
<stop stop-color="#1DAB36"/>
<stop offset="1" stop-color="#5FFC7B"/>
</linearGradient>
<linearGradient id="paint2_linear_12_1013" x1="5.21253" y1="24.2707" x2="41.0881" y2="5.36333" gradientUnits="userSpaceOnUse">
<stop stop-color="#25C040"/>
<stop offset="1" stop-color="#55EB70"/>
</linearGradient>
<linearGradient id="paint3_linear_12_1013" x1="39.7429" y1="1.80112" x2="8.24292" y2="25.9697" gradientUnits="userSpaceOnUse">
<stop stop-color="#20C23D"/>
<stop offset="1" stop-color="#52E96D"/>
</linearGradient>
<linearGradient id="paint4_linear_12_1013" x1="39.5" y1="0.831423" x2="8" y2="25" gradientUnits="userSpaceOnUse">
<stop stop-color="#1DAB36"/>
<stop offset="1" stop-color="#5FFC7B"/>
</linearGradient>
</defs>
</svg>
