<svg width="143" height="55" viewBox="0 0 143 55" fill="none" xmlns="http://www.w3.org/2000/svg">
<g filter="url(#filter0_f_6_56)">
<rect x="10.0625" y="7" width="113" height="42" rx="21" fill="white"/>
<rect x="10.0625" y="7" width="113" height="42" rx="21" fill="url(#paint0_linear_6_56)"/>
<rect x="10.0625" y="7" width="113" height="42" rx="21" fill="url(#paint1_linear_6_56)"/>
<path fill-rule="evenodd" clip-rule="evenodd" d="M40.144 23.7944C39.0346 22.6838 37.5594 22.0719 35.9876 22.0712C32.7489 22.0712 30.113 24.7069 30.1117 27.9466C30.1113 28.9821 30.3819 29.9929 30.8961 30.8841L30.0625 33.9288L33.1773 33.1117C34.0356 33.5798 35.0018 33.8266 35.9852 33.8269H35.9876C39.2259 33.8269 41.8621 31.1909 41.8634 27.9512C41.864 26.3812 41.2533 24.905 40.144 23.7944ZM35.9876 32.8346H35.9857C35.1093 32.8343 34.2498 32.5988 33.5 32.1539L33.3217 32.0481L31.4733 32.5329L31.9666 30.7308L31.8505 30.5459C31.3617 29.7684 31.1034 28.8697 31.1038 27.9469C31.1049 25.2542 33.2957 23.0636 35.9896 23.0636C37.294 23.064 38.5202 23.5726 39.4423 24.4958C40.3643 25.4189 40.8718 26.6459 40.8713 27.9509C40.8702 30.6438 38.6794 32.8346 35.9876 32.8346ZM38.6664 29.1769C38.5196 29.1035 37.7979 28.7483 37.6633 28.6993C37.5287 28.6503 37.4308 28.6258 37.3329 28.7728C37.2351 28.9198 36.9537 29.2504 36.868 29.3485C36.7824 29.4464 36.6967 29.4587 36.55 29.3852C36.4031 29.3117 35.9301 29.1567 35.3693 28.6565C34.9329 28.2672 34.6382 27.7864 34.5526 27.6394C34.4669 27.4924 34.5434 27.413 34.6169 27.3398C34.683 27.2739 34.7638 27.1682 34.8372 27.0825C34.9106 26.9968 34.9351 26.9355 34.984 26.8376C35.033 26.7396 35.0085 26.6538 34.9717 26.5804C34.9351 26.5069 34.6414 25.7842 34.5191 25.4902C34.3999 25.204 34.2789 25.2427 34.1888 25.2382C34.1032 25.234 34.0053 25.233 33.9073 25.233C33.8095 25.233 33.6505 25.2697 33.5159 25.4167C33.3813 25.5637 33.002 25.9189 33.002 26.6416C33.002 27.3642 33.5281 28.0623 33.6015 28.1603C33.6749 28.2583 34.6368 29.7412 36.1095 30.3772C36.4597 30.5285 36.7332 30.6188 36.9465 30.6865C37.2982 30.7983 37.6183 30.7824 37.8712 30.7447C38.1533 30.7025 38.7398 30.3895 38.8622 30.0465C38.9845 29.7036 38.9845 29.4096 38.9478 29.3484C38.9111 29.2872 38.8133 29.2504 38.6664 29.1769Z" fill="white"/>
<path fill-rule="evenodd" clip-rule="evenodd" d="M40.144 23.7944C39.0346 22.6838 37.5594 22.0719 35.9876 22.0712C32.7489 22.0712 30.113 24.7069 30.1117 27.9466C30.1113 28.9821 30.3819 29.9929 30.8961 30.8841L30.0625 33.9288L33.1773 33.1117C34.0356 33.5798 35.0018 33.8266 35.9852 33.8269H35.9876C39.2259 33.8269 41.8621 31.1909 41.8634 27.9512C41.864 26.3812 41.2533 24.905 40.144 23.7944ZM35.9876 32.8346H35.9857C35.1093 32.8343 34.2498 32.5988 33.5 32.1539L33.3217 32.0481L31.4733 32.5329L31.9666 30.7308L31.8505 30.5459C31.3617 29.7684 31.1034 28.8697 31.1038 27.9469C31.1049 25.2542 33.2957 23.0636 35.9896 23.0636C37.294 23.064 38.5202 23.5726 39.4423 24.4958C40.3643 25.4189 40.8718 26.6459 40.8713 27.9509C40.8702 30.6438 38.6794 32.8346 35.9876 32.8346ZM38.6664 29.1769C38.5196 29.1035 37.7979 28.7483 37.6633 28.6993C37.5287 28.6503 37.4308 28.6258 37.3329 28.7728C37.2351 28.9198 36.9537 29.2504 36.868 29.3485C36.7824 29.4464 36.6967 29.4587 36.55 29.3852C36.4031 29.3117 35.9301 29.1567 35.3693 28.6565C34.9329 28.2672 34.6382 27.7864 34.5526 27.6394C34.4669 27.4924 34.5434 27.413 34.6169 27.3398C34.683 27.2739 34.7638 27.1682 34.8372 27.0825C34.9106 26.9968 34.9351 26.9355 34.984 26.8376C35.033 26.7396 35.0085 26.6538 34.9717 26.5804C34.9351 26.5069 34.6414 25.7842 34.5191 25.4902C34.3999 25.204 34.2789 25.2427 34.1888 25.2382C34.1032 25.234 34.0053 25.233 33.9073 25.233C33.8095 25.233 33.6505 25.2697 33.5159 25.4167C33.3813 25.5637 33.002 25.9189 33.002 26.6416C33.002 27.3642 33.5281 28.0623 33.6015 28.1603C33.6749 28.2583 34.6368 29.7412 36.1095 30.3772C36.4597 30.5285 36.7332 30.6188 36.9465 30.6865C37.2982 30.7983 37.6183 30.7824 37.8712 30.7447C38.1533 30.7025 38.7398 30.3895 38.8622 30.0465C38.9845 29.7036 38.9845 29.4096 38.9478 29.3484C38.9111 29.2872 38.8133 29.2504 38.6664 29.1769Z" fill="url(#paint2_linear_6_56)"/>
<path fill-rule="evenodd" clip-rule="evenodd" d="M40.144 23.7944C39.0346 22.6838 37.5594 22.0719 35.9876 22.0712C32.7489 22.0712 30.113 24.7069 30.1117 27.9466C30.1113 28.9821 30.3819 29.9929 30.8961 30.8841L30.0625 33.9288L33.1773 33.1117C34.0356 33.5798 35.0018 33.8266 35.9852 33.8269H35.9876C39.2259 33.8269 41.8621 31.1909 41.8634 27.9512C41.864 26.3812 41.2533 24.905 40.144 23.7944ZM35.9876 32.8346H35.9857C35.1093 32.8343 34.2498 32.5988 33.5 32.1539L33.3217 32.0481L31.4733 32.5329L31.9666 30.7308L31.8505 30.5459C31.3617 29.7684 31.1034 28.8697 31.1038 27.9469C31.1049 25.2542 33.2957 23.0636 35.9896 23.0636C37.294 23.064 38.5202 23.5726 39.4423 24.4958C40.3643 25.4189 40.8718 26.6459 40.8713 27.9509C40.8702 30.6438 38.6794 32.8346 35.9876 32.8346ZM38.6664 29.1769C38.5196 29.1035 37.7979 28.7483 37.6633 28.6993C37.5287 28.6503 37.4308 28.6258 37.3329 28.7728C37.2351 28.9198 36.9537 29.2504 36.868 29.3485C36.7824 29.4464 36.6967 29.4587 36.55 29.3852C36.4031 29.3117 35.9301 29.1567 35.3693 28.6565C34.9329 28.2672 34.6382 27.7864 34.5526 27.6394C34.4669 27.4924 34.5434 27.413 34.6169 27.3398C34.683 27.2739 34.7638 27.1682 34.8372 27.0825C34.9106 26.9968 34.9351 26.9355 34.984 26.8376C35.033 26.7396 35.0085 26.6538 34.9717 26.5804C34.9351 26.5069 34.6414 25.7842 34.5191 25.4902C34.3999 25.204 34.2789 25.2427 34.1888 25.2382C34.1032 25.234 34.0053 25.233 33.9073 25.233C33.8095 25.233 33.6505 25.2697 33.5159 25.4167C33.3813 25.5637 33.002 25.9189 33.002 26.6416C33.002 27.3642 33.5281 28.0623 33.6015 28.1603C33.6749 28.2583 34.6368 29.7412 36.1095 30.3772C36.4597 30.5285 36.7332 30.6188 36.9465 30.6865C37.2982 30.7983 37.6183 30.7824 37.8712 30.7447C38.1533 30.7025 38.7398 30.3895 38.8622 30.0465C38.9845 29.7036 38.9845 29.4096 38.9478 29.3484C38.9111 29.2872 38.8133 29.2504 38.6664 29.1769Z" fill="white"/>
<path d="M62.8817 15.1493V25H61.9243V20.3938H56.0833V25H55.1121V15.1493H56.0833V19.5335H61.9243V15.1493H62.8817ZM66.9375 25.1387C66.5953 25.1387 66.2762 25.0832 65.9802 24.9723C65.6934 24.852 65.4391 24.6901 65.2171 24.4867C65.0043 24.2832 64.8379 24.0473 64.7176 23.7791C64.5974 23.5016 64.5372 23.2056 64.5372 22.8911C64.5372 22.5766 64.6112 22.2853 64.7592 22.017C64.9072 21.7488 65.1153 21.5176 65.3836 21.3233C65.6518 21.1291 65.9709 20.9811 66.3409 20.8793C66.7109 20.7684 67.1179 20.7129 67.5618 20.7129C67.9318 20.7129 68.3064 20.7452 68.6856 20.81C69.0649 20.8747 69.4025 20.9672 69.6985 21.0875V20.4354C69.6985 19.7972 69.5181 19.2931 69.1574 18.9231C68.7966 18.5439 68.2972 18.3542 67.659 18.3542C67.289 18.3542 66.9097 18.4282 66.5213 18.5762C66.1328 18.7242 65.7397 18.937 65.342 19.2144L65.009 18.5901C65.9432 17.9611 66.8496 17.6467 67.7283 17.6467C68.6348 17.6467 69.347 17.901 69.865 18.4097C70.3829 18.9185 70.6419 19.6214 70.6419 20.5186V23.7791C70.6419 24.0381 70.7575 24.1675 70.9888 24.1675V25C70.8315 25.0277 70.7113 25.0416 70.628 25.0416C70.3876 25.0416 70.1979 24.9815 70.0592 24.8613C69.9297 24.741 69.8603 24.5745 69.8511 24.3618L69.8233 23.7929C69.4904 24.2277 69.0695 24.5606 68.5608 24.7919C68.0613 25.0231 67.5202 25.1387 66.9375 25.1387ZM67.1595 24.4173C67.6497 24.4173 68.0983 24.3248 68.5053 24.1398C68.9215 23.9548 69.236 23.7097 69.4487 23.4045C69.532 23.3212 69.5921 23.2333 69.6291 23.1409C69.6753 23.0391 69.6985 22.9466 69.6985 22.8634V21.6841C69.384 21.5638 69.0556 21.4713 68.7134 21.4066C68.3804 21.3418 68.0382 21.3095 67.6867 21.3095C67.0207 21.3095 66.4796 21.4482 66.0634 21.7257C65.6472 22.0032 65.4391 22.3685 65.4391 22.8217C65.4391 23.0437 65.4807 23.2518 65.5639 23.4461C65.6564 23.6403 65.7767 23.8114 65.9247 23.9594C66.0819 24.0982 66.2669 24.2092 66.4796 24.2924C66.6924 24.3757 66.919 24.4173 67.1595 24.4173ZM78.3962 25H77.4805V18.5901H73.6373V25H72.7078V17.7715H78.3962V25ZM81.4552 23.6681L85.77 17.7715H86.5331V25H85.6035V19.2144L81.3719 25H80.5256V17.7715H81.4552V23.6681ZM88.1417 21.3649C88.1417 20.8562 88.2295 20.3753 88.4053 19.922C88.581 19.4688 88.8261 19.0757 89.1406 18.7427C89.4643 18.4005 89.8482 18.1322 90.2922 17.938C90.7362 17.7438 91.2264 17.6467 91.7628 17.6467C92.4473 17.6467 93.0439 17.8039 93.5526 18.1184C94.0613 18.4236 94.4452 18.8398 94.7042 19.3671L93.7885 19.6584C93.585 19.2884 93.2983 19.0017 92.9283 18.7982C92.5676 18.5855 92.1652 18.4791 91.7212 18.4791C91.3512 18.4791 91.0044 18.5531 90.6807 18.7011C90.3662 18.8491 90.0887 19.0526 89.8482 19.3116C89.617 19.5613 89.432 19.8619 89.2932 20.2134C89.1637 20.5649 89.099 20.9487 89.099 21.3649C89.099 21.7719 89.1684 22.1558 89.3071 22.5165C89.4458 22.8772 89.6355 23.1917 89.876 23.46C90.1164 23.7189 90.3939 23.9271 90.7084 24.0843C91.0321 24.2323 91.3744 24.3063 91.7351 24.3063C91.9663 24.3063 92.1929 24.2739 92.4149 24.2092C92.6462 24.1444 92.8589 24.0566 93.0532 23.9456C93.2474 23.8253 93.4139 23.6912 93.5526 23.5432C93.6914 23.3952 93.7885 23.238 93.844 23.0715L94.7736 23.349C94.6718 23.608 94.5238 23.8484 94.3296 24.0704C94.1353 24.2832 93.9041 24.4728 93.6359 24.6393C93.3769 24.7965 93.0855 24.9168 92.7618 25C92.4473 25.0925 92.119 25.1387 91.7767 25.1387C91.2495 25.1387 90.7639 25.0416 90.3199 24.8474C89.876 24.6439 89.4921 24.371 89.1684 24.0288C88.8446 23.6773 88.5903 23.275 88.4053 22.8217C88.2295 22.3685 88.1417 21.8829 88.1417 21.3649ZM98.0732 25.1387C97.731 25.1387 97.4119 25.0832 97.1159 24.9723C96.8292 24.852 96.5748 24.6901 96.3528 24.4867C96.1401 24.2832 95.9736 24.0473 95.8534 23.7791C95.7331 23.5016 95.673 23.2056 95.673 22.8911C95.673 22.5766 95.747 22.2853 95.895 22.017C96.043 21.7488 96.2511 21.5176 96.5193 21.3233C96.7876 21.1291 97.1067 20.9811 97.4767 20.8793C97.8466 20.7684 98.2536 20.7129 98.6976 20.7129C99.0676 20.7129 99.4422 20.7452 99.8214 20.81C100.201 20.8747 100.538 20.9672 100.834 21.0875V20.4354C100.834 19.7972 100.654 19.2931 100.293 18.9231C99.9324 18.5439 99.4329 18.3542 98.7947 18.3542C98.4247 18.3542 98.0455 18.4282 97.657 18.5762C97.2685 18.7242 96.8754 18.937 96.4777 19.2144L96.1447 18.5901C97.0789 17.9611 97.9854 17.6467 98.8641 17.6467C99.7705 17.6467 100.483 17.901 101.001 18.4097C101.519 18.9185 101.778 19.6214 101.778 20.5186V23.7791C101.778 24.0381 101.893 24.1675 102.125 24.1675V25C101.967 25.0277 101.847 25.0416 101.764 25.0416C101.523 25.0416 101.334 24.9815 101.195 24.8613C101.065 24.741 100.996 24.5745 100.987 24.3618L100.959 23.7929C100.626 24.2277 100.205 24.5606 99.6965 24.7919C99.1971 25.0231 98.656 25.1387 98.0732 25.1387ZM98.2952 24.4173C98.7855 24.4173 99.2341 24.3248 99.641 24.1398C100.057 23.9548 100.372 23.7097 100.584 23.4045C100.668 23.3212 100.728 23.2333 100.765 23.1409C100.811 23.0391 100.834 22.9466 100.834 22.8634V21.6841C100.52 21.5638 100.191 21.4713 99.8491 21.4066C99.5162 21.3418 99.1739 21.3095 98.8225 21.3095C98.1565 21.3095 97.6154 21.4482 97.1992 21.7257C96.7829 22.0032 96.5748 22.3685 96.5748 22.8217C96.5748 23.0437 96.6164 23.2518 96.6997 23.4461C96.7922 23.6403 96.9124 23.8114 97.0604 23.9594C97.2177 24.0982 97.4027 24.2092 97.6154 24.2924C97.8281 24.3757 98.0547 24.4173 98.2952 24.4173ZM106.332 25H105.416V18.5901H102.877V17.7715H108.871V18.5901H106.332V25ZM110.212 17.7715H111.141V20.3383H112.709C113.042 20.3383 113.356 20.3891 113.652 20.4909C113.948 20.5926 114.207 20.7406 114.429 20.9348C114.651 21.1291 114.827 21.3742 114.957 21.6702C115.086 21.9569 115.151 22.2899 115.151 22.6691C115.151 23.0484 115.086 23.386 114.957 23.6819C114.827 23.9687 114.651 24.2092 114.429 24.4034C114.207 24.5976 113.948 24.7456 113.652 24.8474C113.356 24.9491 113.042 25 112.709 25H110.212V17.7715ZM112.709 24.1953C113.19 24.1953 113.56 24.0612 113.819 23.7929C114.087 23.5155 114.221 23.1409 114.221 22.6691C114.221 22.1974 114.087 21.8274 113.819 21.5592C113.551 21.2817 113.181 21.143 112.709 21.143H111.141V24.1953H112.709ZM58.4835 33.7715C58.7425 33.7715 58.9784 33.8178 59.1911 33.9103C59.4131 34.0028 59.6027 34.1322 59.76 34.2987C59.9264 34.456 60.0513 34.641 60.1346 34.8537C60.2271 35.0664 60.2733 35.2977 60.2733 35.5474C60.2733 35.7139 60.2502 35.8804 60.2039 36.0469C60.1669 36.2134 60.1068 36.3753 60.0236 36.5325C59.9403 36.6805 59.834 36.8192 59.7045 36.9487C59.575 37.069 59.4223 37.1661 59.2466 37.2401C59.6536 37.3511 59.9727 37.5638 60.2039 37.8783C60.4352 38.1928 60.5508 38.572 60.5508 39.016C60.5508 39.312 60.4953 39.5802 60.3843 39.8207C60.2826 40.0612 60.1346 40.2693 59.9403 40.445C59.7553 40.6208 59.5333 40.7595 59.2744 40.8613C59.0154 40.9538 58.7333 41 58.428 41H54.9456V33.7715H58.4835ZM58.1089 36.9626C58.4882 36.9626 58.7888 36.8424 59.0107 36.6019C59.2327 36.3614 59.3437 36.0561 59.3437 35.6862C59.3437 35.3624 59.2512 35.0803 59.0662 34.8398C58.8813 34.5993 58.5945 34.4791 58.206 34.4791H55.8613V36.9626H58.1089ZM58.3309 40.2924C58.5251 40.2924 58.7009 40.2554 58.8581 40.1814C59.0246 40.1074 59.1634 40.0103 59.2744 39.8901C59.3854 39.7606 59.4732 39.6172 59.538 39.46C59.6027 39.3027 59.6351 39.1362 59.6351 38.9605C59.6351 38.6275 59.5195 38.3315 59.2882 38.0725C59.0662 37.8135 58.7564 37.6841 58.3587 37.6841H55.8613V40.2924H58.3309ZM69.127 31.2187H70.0427L71.4301 34.715L72.8314 31.2187H73.761L72.0406 35.4226L73.9275 39.8762L77.4932 31.1493H78.5476L74.3715 41H73.5113L71.444 36.1301L69.3629 41H68.5166L64.3543 31.1493H65.3948L68.9744 39.8762L70.8474 35.4226L69.127 31.2187ZM85.8163 41H84.8729V36.9626C84.8729 36.1394 84.7295 35.5243 84.4428 35.1173C84.1653 34.7103 83.7537 34.5069 83.208 34.5069C82.9397 34.5069 82.6715 34.5624 82.4033 34.6733C82.1443 34.7751 81.8992 34.9185 81.6679 35.1034C81.4367 35.2884 81.2332 35.5058 81.0575 35.7555C80.891 36.0053 80.7661 36.2781 80.6829 36.5741V41H79.7394V30.8718H80.6829V35.4087C80.9696 34.863 81.3673 34.4329 81.876 34.1184C82.3848 33.8039 82.9351 33.6467 83.5271 33.6467C83.9433 33.6467 84.2948 33.7253 84.5815 33.8825C84.8683 34.0305 85.1041 34.2432 85.2891 34.5207C85.4741 34.789 85.6082 35.1173 85.6915 35.5058C85.7747 35.885 85.8163 36.3059 85.8163 36.7684V41ZM89.6457 41.1387C89.3035 41.1387 88.9844 41.0832 88.6884 40.9723C88.4017 40.852 88.1473 40.6901 87.9253 40.4867C87.7126 40.2832 87.5461 40.0473 87.4258 39.7791C87.3056 39.5016 87.2455 39.2056 87.2455 38.8911C87.2455 38.5766 87.3195 38.2853 87.4675 38.017C87.6155 37.7488 87.8236 37.5176 88.0918 37.3233C88.36 37.1291 88.6792 36.9811 89.0491 36.8793C89.4191 36.7684 89.8261 36.7129 90.2701 36.7129C90.64 36.7129 91.0147 36.7452 91.3939 36.81C91.7731 36.8747 92.1107 36.9672 92.4067 37.0875V36.4354C92.4067 35.7972 92.2263 35.2931 91.8656 34.9231C91.5049 34.5439 91.0054 34.3542 90.3672 34.3542C89.9972 34.3542 89.618 34.4282 89.2295 34.5762C88.841 34.7242 88.4479 34.937 88.0502 35.2144L87.7172 34.5901C88.6514 33.9611 89.5579 33.6467 90.4366 33.6467C91.343 33.6467 92.0552 33.901 92.5732 34.4097C93.0912 34.9185 93.3501 35.6214 93.3501 36.5186V39.7791C93.3501 40.0381 93.4658 40.1675 93.697 40.1675V41C93.5398 41.0277 93.4195 41.0416 93.3363 41.0416C93.0958 41.0416 92.9062 40.9815 92.7674 40.8613C92.6379 40.741 92.5686 40.5745 92.5593 40.3618L92.5316 39.7929C92.1986 40.2277 91.7777 40.5606 91.269 40.7919C90.7695 41.0231 90.2284 41.1387 89.6457 41.1387ZM89.8677 40.4173C90.3579 40.4173 90.8065 40.3248 91.2135 40.1398C91.6297 39.9548 91.9442 39.7097 92.157 39.4045C92.2402 39.3212 92.3003 39.2333 92.3373 39.1409C92.3836 39.0391 92.4067 38.9466 92.4067 38.8634V37.6841C92.0922 37.5638 91.7639 37.4713 91.4216 37.4066C91.0886 37.3418 90.7464 37.3095 90.3949 37.3095C89.729 37.3095 89.1879 37.4482 88.7716 37.7257C88.3554 38.0032 88.1473 38.3685 88.1473 38.8217C88.1473 39.0437 88.1889 39.2518 88.2722 39.4461C88.3647 39.6403 88.4849 39.8114 88.6329 39.9594C88.7901 40.0982 88.9751 40.2092 89.1879 40.2924C89.4006 40.3757 89.6272 40.4173 89.8677 40.4173ZM98.8029 40.6531C98.7474 40.6809 98.6642 40.7179 98.5532 40.7641C98.4515 40.8104 98.3312 40.8566 98.1925 40.9029C98.0537 40.9491 97.8965 40.9908 97.7207 41.0277C97.545 41.0647 97.36 41.0832 97.1658 41.0832C96.9623 41.0832 96.7681 41.0555 96.5831 41C96.3981 40.9445 96.2362 40.8613 96.0975 40.7503C95.9587 40.63 95.8477 40.482 95.7645 40.3063C95.6812 40.1305 95.6396 39.9271 95.6396 39.6958V34.5207H94.6407V33.7715H95.6396V31.3297H96.5831V33.7715H98.248V34.5207H96.5831V39.4322C96.6016 39.7004 96.6941 39.8993 96.8605 40.0288C97.0363 40.149 97.2352 40.2092 97.4571 40.2092C97.7254 40.2092 97.9612 40.1675 98.1647 40.0843C98.3682 39.9918 98.4977 39.9271 98.5532 39.8901L98.8029 40.6531ZM102.382 41.1387C101.818 41.1387 101.267 41.0462 100.731 40.8613C100.194 40.6763 99.732 40.408 99.3435 40.0566L99.7736 39.4183C100.181 39.7513 100.592 40.0011 101.008 40.1675C101.434 40.334 101.887 40.4173 102.368 40.4173C102.951 40.4173 103.413 40.3017 103.756 40.0704C104.107 39.8299 104.283 39.4923 104.283 39.0576C104.283 38.8541 104.236 38.6876 104.144 38.5581C104.051 38.4194 103.913 38.2991 103.728 38.1974C103.552 38.0957 103.325 38.0078 103.048 37.9338C102.78 37.8505 102.465 37.7673 102.104 37.6841C101.688 37.5823 101.328 37.4806 101.022 37.3788C100.717 37.2771 100.463 37.1615 100.259 37.032C100.065 36.9025 99.917 36.7452 99.8152 36.5602C99.7227 36.366 99.6765 36.1255 99.6765 35.8388C99.6765 35.4781 99.7458 35.1589 99.8846 34.8815C100.033 34.604 100.227 34.3774 100.467 34.2016C100.717 34.0166 101.004 33.8779 101.328 33.7854C101.66 33.6929 102.012 33.6467 102.382 33.6467C102.937 33.6467 103.441 33.7391 103.894 33.9241C104.347 34.0999 104.713 34.3357 104.99 34.6317L104.532 35.1867C104.264 34.9092 103.936 34.7011 103.547 34.5624C103.168 34.4236 102.77 34.3542 102.354 34.3542C102.104 34.3542 101.873 34.382 101.66 34.4375C101.448 34.4837 101.258 34.5624 101.092 34.6733C100.934 34.7843 100.81 34.9277 100.717 35.1034C100.625 35.2699 100.578 35.4688 100.578 35.7C100.578 35.8943 100.611 36.0515 100.675 36.1718C100.74 36.292 100.847 36.3984 100.995 36.4909C101.143 36.5741 101.328 36.6527 101.549 36.7267C101.781 36.7915 102.058 36.8609 102.382 36.9348C102.844 37.0458 103.251 37.1568 103.603 37.2678C103.954 37.3788 104.246 37.5083 104.477 37.6563C104.717 37.8043 104.898 37.9847 105.018 38.1974C105.138 38.4101 105.198 38.6691 105.198 38.9744C105.198 39.6403 104.944 40.1675 104.435 40.556C103.927 40.9445 103.242 41.1387 102.382 41.1387ZM109.881 31.1493H110.699L114.792 41H113.766L112.489 37.9199H108.063L106.801 41H105.76L109.881 31.1493ZM112.267 37.1568L110.283 32.287L108.271 37.1568H112.267ZM119.701 41.1387C119.09 41.1387 118.549 40.9861 118.078 40.6809C117.615 40.3664 117.24 39.9733 116.954 39.5016V43.9552H116.01V33.7715H116.857V35.1728C117.153 34.7196 117.536 34.3542 118.008 34.0768C118.48 33.79 118.993 33.6467 119.548 33.6467C120.048 33.6467 120.506 33.753 120.922 33.9658C121.338 34.1692 121.699 34.4467 122.004 34.7982C122.309 35.1404 122.545 35.5382 122.712 35.9914C122.887 36.4446 122.975 36.9117 122.975 37.3927C122.975 37.9014 122.897 38.3824 122.739 38.8356C122.582 39.2888 122.355 39.6866 122.059 40.0288C121.773 40.371 121.426 40.6439 121.019 40.8474C120.621 41.0416 120.182 41.1387 119.701 41.1387ZM119.437 40.3063C119.826 40.3063 120.177 40.223 120.492 40.0566C120.815 39.8901 121.088 39.6727 121.31 39.4045C121.541 39.127 121.717 38.8171 121.837 38.4749C121.958 38.1234 122.018 37.7627 122.018 37.3927C122.018 37.0042 121.948 36.6342 121.81 36.2828C121.671 35.9313 121.481 35.6214 121.241 35.3532C121 35.0849 120.714 34.8722 120.381 34.715C120.057 34.5577 119.705 34.4791 119.326 34.4791C119.086 34.4791 118.831 34.53 118.563 34.6317C118.304 34.7242 118.059 34.8537 117.828 35.0202C117.606 35.1774 117.412 35.3671 117.245 35.589C117.088 35.8018 116.991 36.0284 116.954 36.2689V38.4888C117.065 38.7477 117.203 38.9882 117.37 39.2102C117.546 39.4322 117.74 39.6264 117.953 39.7929C118.175 39.9502 118.41 40.0751 118.66 40.1675C118.91 40.26 119.169 40.3063 119.437 40.3063ZM128.264 41.1387C127.653 41.1387 127.112 40.9861 126.641 40.6809C126.178 40.3664 125.803 39.9733 125.517 39.5016V43.9552H124.573V33.7715H125.42V35.1728C125.716 34.7196 126.099 34.3542 126.571 34.0768C127.043 33.79 127.556 33.6467 128.111 33.6467C128.611 33.6467 129.069 33.753 129.485 33.9658C129.901 34.1692 130.262 34.4467 130.567 34.7982C130.872 35.1404 131.108 35.5382 131.275 35.9914C131.45 36.4446 131.538 36.9117 131.538 37.3927C131.538 37.9014 131.46 38.3824 131.302 38.8356C131.145 39.2888 130.918 39.6866 130.622 40.0288C130.336 40.371 129.989 40.6439 129.582 40.8474C129.184 41.0416 128.745 41.1387 128.264 41.1387ZM128 40.3063C128.389 40.3063 128.74 40.223 129.055 40.0566C129.378 39.8901 129.651 39.6727 129.873 39.4045C130.104 39.127 130.28 38.8171 130.4 38.4749C130.521 38.1234 130.581 37.7627 130.581 37.3927C130.581 37.0042 130.511 36.6342 130.373 36.2828C130.234 35.9313 130.044 35.6214 129.804 35.3532C129.563 35.0849 129.277 34.8722 128.944 34.715C128.62 34.5577 128.268 34.4791 127.889 34.4791C127.649 34.4791 127.394 34.53 127.126 34.6317C126.867 34.7242 126.622 34.8537 126.391 35.0202C126.169 35.1774 125.975 35.3671 125.808 35.589C125.651 35.8018 125.554 36.0284 125.517 36.2689V38.4888C125.628 38.7477 125.766 38.9882 125.933 39.2102C126.109 39.4322 126.303 39.6264 126.516 39.7929C126.738 39.9502 126.974 40.0751 127.223 40.1675C127.473 40.26 127.732 40.3063 128 40.3063Z" fill="white"/>
</g>
<rect y="2" width="142.801" height="52" rx="26" fill="white"/>
<rect y="2" width="142.801" height="52" rx="26" fill="url(#paint3_linear_6_56)"/>
<rect y="2" width="142.801" height="52" rx="26" fill="url(#paint4_linear_6_56)"/>
<path fill-rule="evenodd" clip-rule="evenodd" d="M30.0815 23.7944C28.9721 22.6838 27.4969 22.0719 25.9251 22.0712C22.6864 22.0712 20.0505 24.7069 20.0492 27.9466C20.0488 28.9821 20.3194 29.9929 20.8336 30.8841L20 33.9288L23.1148 33.1117C23.9731 33.5798 24.9393 33.8266 25.9227 33.8269H25.9251C29.1634 33.8269 31.7996 31.1909 31.8009 27.9512C31.8015 26.3812 31.1908 24.905 30.0815 23.7944ZM25.9251 32.8346H25.9232C25.0468 32.8343 24.1873 32.5988 23.4375 32.1539L23.2592 32.0481L21.4108 32.5329L21.9041 30.7308L21.788 30.5459C21.2992 29.7684 21.0409 28.8697 21.0413 27.9469C21.0424 25.2542 23.2332 23.0636 25.9271 23.0636C27.2315 23.064 28.4577 23.5726 29.3798 24.4958C30.3018 25.4189 30.8093 26.6459 30.8088 27.9509C30.8077 30.6438 28.6169 32.8346 25.9251 32.8346ZM28.6039 29.1769C28.4571 29.1035 27.7354 28.7483 27.6008 28.6993C27.4662 28.6503 27.3683 28.6258 27.2704 28.7728C27.1726 28.9198 26.8912 29.2504 26.8055 29.3485C26.7199 29.4464 26.6342 29.4587 26.4875 29.3852C26.3406 29.3117 25.8676 29.1567 25.3068 28.6565C24.8704 28.2672 24.5757 27.7864 24.4901 27.6394C24.4044 27.4924 24.4809 27.413 24.5544 27.3398C24.6205 27.2739 24.7013 27.1682 24.7747 27.0825C24.8481 26.9968 24.8726 26.9355 24.9215 26.8376C24.9705 26.7396 24.946 26.6538 24.9092 26.5804C24.8726 26.5069 24.5789 25.7842 24.4566 25.4902C24.3374 25.204 24.2164 25.2427 24.1263 25.2382C24.0407 25.234 23.9428 25.233 23.8448 25.233C23.747 25.233 23.588 25.2697 23.4534 25.4167C23.3188 25.5637 22.9395 25.9189 22.9395 26.6416C22.9395 27.3642 23.4656 28.0623 23.539 28.1603C23.6124 28.2583 24.5743 29.7412 26.047 30.3772C26.3972 30.5285 26.6707 30.6188 26.884 30.6865C27.2357 30.7983 27.5558 30.7824 27.8087 30.7447C28.0908 30.7025 28.6773 30.3895 28.7997 30.0465C28.922 29.7036 28.922 29.4096 28.8853 29.3484C28.8486 29.2872 28.7508 29.2504 28.6039 29.1769Z" fill="white"/>
<path fill-rule="evenodd" clip-rule="evenodd" d="M30.0815 23.7944C28.9721 22.6838 27.4969 22.0719 25.9251 22.0712C22.6864 22.0712 20.0505 24.7069 20.0492 27.9466C20.0488 28.9821 20.3194 29.9929 20.8336 30.8841L20 33.9288L23.1148 33.1117C23.9731 33.5798 24.9393 33.8266 25.9227 33.8269H25.9251C29.1634 33.8269 31.7996 31.1909 31.8009 27.9512C31.8015 26.3812 31.1908 24.905 30.0815 23.7944ZM25.9251 32.8346H25.9232C25.0468 32.8343 24.1873 32.5988 23.4375 32.1539L23.2592 32.0481L21.4108 32.5329L21.9041 30.7308L21.788 30.5459C21.2992 29.7684 21.0409 28.8697 21.0413 27.9469C21.0424 25.2542 23.2332 23.0636 25.9271 23.0636C27.2315 23.064 28.4577 23.5726 29.3798 24.4958C30.3018 25.4189 30.8093 26.6459 30.8088 27.9509C30.8077 30.6438 28.6169 32.8346 25.9251 32.8346ZM28.6039 29.1769C28.4571 29.1035 27.7354 28.7483 27.6008 28.6993C27.4662 28.6503 27.3683 28.6258 27.2704 28.7728C27.1726 28.9198 26.8912 29.2504 26.8055 29.3485C26.7199 29.4464 26.6342 29.4587 26.4875 29.3852C26.3406 29.3117 25.8676 29.1567 25.3068 28.6565C24.8704 28.2672 24.5757 27.7864 24.4901 27.6394C24.4044 27.4924 24.4809 27.413 24.5544 27.3398C24.6205 27.2739 24.7013 27.1682 24.7747 27.0825C24.8481 26.9968 24.8726 26.9355 24.9215 26.8376C24.9705 26.7396 24.946 26.6538 24.9092 26.5804C24.8726 26.5069 24.5789 25.7842 24.4566 25.4902C24.3374 25.204 24.2164 25.2427 24.1263 25.2382C24.0407 25.234 23.9428 25.233 23.8448 25.233C23.747 25.233 23.588 25.2697 23.4534 25.4167C23.3188 25.5637 22.9395 25.9189 22.9395 26.6416C22.9395 27.3642 23.4656 28.0623 23.539 28.1603C23.6124 28.2583 24.5743 29.7412 26.047 30.3772C26.3972 30.5285 26.6707 30.6188 26.884 30.6865C27.2357 30.7983 27.5558 30.7824 27.8087 30.7447C28.0908 30.7025 28.6773 30.3895 28.7997 30.0465C28.922 29.7036 28.922 29.4096 28.8853 29.3484C28.8486 29.2872 28.7508 29.2504 28.6039 29.1769Z" fill="url(#paint5_linear_6_56)"/>
<path fill-rule="evenodd" clip-rule="evenodd" d="M30.0815 23.7944C28.9721 22.6838 27.4969 22.0719 25.9251 22.0712C22.6864 22.0712 20.0505 24.7069 20.0492 27.9466C20.0488 28.9821 20.3194 29.9929 20.8336 30.8841L20 33.9288L23.1148 33.1117C23.9731 33.5798 24.9393 33.8266 25.9227 33.8269H25.9251C29.1634 33.8269 31.7996 31.1909 31.8009 27.9512C31.8015 26.3812 31.1908 24.905 30.0815 23.7944ZM25.9251 32.8346H25.9232C25.0468 32.8343 24.1873 32.5988 23.4375 32.1539L23.2592 32.0481L21.4108 32.5329L21.9041 30.7308L21.788 30.5459C21.2992 29.7684 21.0409 28.8697 21.0413 27.9469C21.0424 25.2542 23.2332 23.0636 25.9271 23.0636C27.2315 23.064 28.4577 23.5726 29.3798 24.4958C30.3018 25.4189 30.8093 26.6459 30.8088 27.9509C30.8077 30.6438 28.6169 32.8346 25.9251 32.8346ZM28.6039 29.1769C28.4571 29.1035 27.7354 28.7483 27.6008 28.6993C27.4662 28.6503 27.3683 28.6258 27.2704 28.7728C27.1726 28.9198 26.8912 29.2504 26.8055 29.3485C26.7199 29.4464 26.6342 29.4587 26.4875 29.3852C26.3406 29.3117 25.8676 29.1567 25.3068 28.6565C24.8704 28.2672 24.5757 27.7864 24.4901 27.6394C24.4044 27.4924 24.4809 27.413 24.5544 27.3398C24.6205 27.2739 24.7013 27.1682 24.7747 27.0825C24.8481 26.9968 24.8726 26.9355 24.9215 26.8376C24.9705 26.7396 24.946 26.6538 24.9092 26.5804C24.8726 26.5069 24.5789 25.7842 24.4566 25.4902C24.3374 25.204 24.2164 25.2427 24.1263 25.2382C24.0407 25.234 23.9428 25.233 23.8448 25.233C23.747 25.233 23.588 25.2697 23.4534 25.4167C23.3188 25.5637 22.9395 25.9189 22.9395 26.6416C22.9395 27.3642 23.4656 28.0623 23.539 28.1603C23.6124 28.2583 24.5743 29.7412 26.047 30.3772C26.3972 30.5285 26.6707 30.6188 26.884 30.6865C27.2357 30.7983 27.5558 30.7824 27.8087 30.7447C28.0908 30.7025 28.6773 30.3895 28.7997 30.0465C28.922 29.7036 28.922 29.4096 28.8853 29.3484C28.8486 29.2872 28.7508 29.2504 28.6039 29.1769Z" fill="white"/>
<path d="M52.8192 15.1493V25H51.8618V20.3938H46.0208V25H45.0496V15.1493H46.0208V19.5335H51.8618V15.1493H52.8192ZM56.875 25.1387C56.5328 25.1387 56.2137 25.0832 55.9177 24.9723C55.6309 24.852 55.3766 24.6901 55.1546 24.4867C54.9418 24.2832 54.7754 24.0473 54.6551 23.7791C54.5349 23.5016 54.4747 23.2056 54.4747 22.8911C54.4747 22.5766 54.5487 22.2853 54.6967 22.017C54.8447 21.7488 55.0528 21.5176 55.3211 21.3233C55.5893 21.1291 55.9084 20.9811 56.2784 20.8793C56.6484 20.7684 57.0554 20.7129 57.4993 20.7129C57.8693 20.7129 58.2439 20.7452 58.6231 20.81C59.0024 20.8747 59.34 20.9672 59.636 21.0875V20.4354C59.636 19.7972 59.4556 19.2931 59.0949 18.9231C58.7341 18.5439 58.2347 18.3542 57.5965 18.3542C57.2265 18.3542 56.8472 18.4282 56.4588 18.5762C56.0703 18.7242 55.6772 18.937 55.2795 19.2144L54.9465 18.5901C55.8807 17.9611 56.7871 17.6467 57.6658 17.6467C58.5723 17.6467 59.2845 17.901 59.8025 18.4097C60.3204 18.9185 60.5794 19.6214 60.5794 20.5186V23.7791C60.5794 24.0381 60.695 24.1675 60.9263 24.1675V25C60.769 25.0277 60.6488 25.0416 60.5655 25.0416C60.3251 25.0416 60.1354 24.9815 59.9967 24.8613C59.8672 24.741 59.7978 24.5745 59.7886 24.3618L59.7608 23.7929C59.4279 24.2277 59.007 24.5606 58.4983 24.7919C57.9988 25.0231 57.4577 25.1387 56.875 25.1387ZM57.097 24.4173C57.5872 24.4173 58.0358 24.3248 58.4428 24.1398C58.859 23.9548 59.1735 23.7097 59.3862 23.4045C59.4695 23.3212 59.5296 23.2333 59.5666 23.1409C59.6128 23.0391 59.636 22.9466 59.636 22.8634V21.6841C59.3215 21.5638 58.9931 21.4713 58.6509 21.4066C58.3179 21.3418 57.9757 21.3095 57.6242 21.3095C56.9582 21.3095 56.4171 21.4482 56.0009 21.7257C55.5847 22.0032 55.3766 22.3685 55.3766 22.8217C55.3766 23.0437 55.4182 23.2518 55.5014 23.4461C55.5939 23.6403 55.7142 23.8114 55.8622 23.9594C56.0194 24.0982 56.2044 24.2092 56.4171 24.2924C56.6299 24.3757 56.8565 24.4173 57.097 24.4173ZM68.3337 25H67.418V18.5901H63.5748V25H62.6453V17.7715H68.3337V25ZM71.3927 23.6681L75.7075 17.7715H76.4706V25H75.541V19.2144L71.3094 25H70.4631V17.7715H71.3927V23.6681ZM78.0792 21.3649C78.0792 20.8562 78.167 20.3753 78.3428 19.922C78.5185 19.4688 78.7636 19.0757 79.0781 18.7427C79.4018 18.4005 79.7857 18.1322 80.2297 17.938C80.6737 17.7438 81.1639 17.6467 81.7003 17.6467C82.3848 17.6467 82.9814 17.8039 83.4901 18.1184C83.9988 18.4236 84.3827 18.8398 84.6417 19.3671L83.726 19.6584C83.5225 19.2884 83.2358 19.0017 82.8658 18.7982C82.5051 18.5855 82.1027 18.4791 81.6587 18.4791C81.2887 18.4791 80.9419 18.5531 80.6182 18.7011C80.3037 18.8491 80.0262 19.0526 79.7857 19.3116C79.5545 19.5613 79.3695 19.8619 79.2307 20.2134C79.1012 20.5649 79.0365 20.9487 79.0365 21.3649C79.0365 21.7719 79.1059 22.1558 79.2446 22.5165C79.3833 22.8772 79.573 23.1917 79.8135 23.46C80.0539 23.7189 80.3314 23.9271 80.6459 24.0843C80.9696 24.2323 81.3119 24.3063 81.6726 24.3063C81.9038 24.3063 82.1304 24.2739 82.3524 24.2092C82.5837 24.1444 82.7964 24.0566 82.9907 23.9456C83.1849 23.8253 83.3514 23.6912 83.4901 23.5432C83.6289 23.3952 83.726 23.238 83.7815 23.0715L84.7111 23.349C84.6093 23.608 84.4613 23.8484 84.2671 24.0704C84.0728 24.2832 83.8416 24.4728 83.5734 24.6393C83.3144 24.7965 83.023 24.9168 82.6993 25C82.3848 25.0925 82.0565 25.1387 81.7142 25.1387C81.187 25.1387 80.7014 25.0416 80.2574 24.8474C79.8135 24.6439 79.4296 24.371 79.1059 24.0288C78.7821 23.6773 78.5278 23.275 78.3428 22.8217C78.167 22.3685 78.0792 21.8829 78.0792 21.3649ZM88.0107 25.1387C87.6685 25.1387 87.3494 25.0832 87.0534 24.9723C86.7667 24.852 86.5123 24.6901 86.2903 24.4867C86.0776 24.2832 85.9111 24.0473 85.7909 23.7791C85.6706 23.5016 85.6105 23.2056 85.6105 22.8911C85.6105 22.5766 85.6845 22.2853 85.8325 22.017C85.9805 21.7488 86.1886 21.5176 86.4568 21.3233C86.7251 21.1291 87.0442 20.9811 87.4142 20.8793C87.7841 20.7684 88.1911 20.7129 88.6351 20.7129C89.0051 20.7129 89.3797 20.7452 89.7589 20.81C90.1381 20.8747 90.4757 20.9672 90.7717 21.0875V20.4354C90.7717 19.7972 90.5914 19.2931 90.2306 18.9231C89.8699 18.5439 89.3704 18.3542 88.7322 18.3542C88.3622 18.3542 87.983 18.4282 87.5945 18.5762C87.206 18.7242 86.8129 18.937 86.4152 19.2144L86.0822 18.5901C87.0164 17.9611 87.9229 17.6467 88.8016 17.6467C89.708 17.6467 90.4202 17.901 90.9382 18.4097C91.4562 18.9185 91.7152 19.6214 91.7152 20.5186V23.7791C91.7152 24.0381 91.8308 24.1675 92.062 24.1675V25C91.9048 25.0277 91.7845 25.0416 91.7013 25.0416C91.4608 25.0416 91.2712 24.9815 91.1324 24.8613C91.003 24.741 90.9336 24.5745 90.9243 24.3618L90.8966 23.7929C90.5636 24.2277 90.1428 24.5606 89.634 24.7919C89.1346 25.0231 88.5935 25.1387 88.0107 25.1387ZM88.2327 24.4173C88.723 24.4173 89.1716 24.3248 89.5785 24.1398C89.9948 23.9548 90.3092 23.7097 90.522 23.4045C90.6052 23.3212 90.6653 23.2333 90.7023 23.1409C90.7486 23.0391 90.7717 22.9466 90.7717 22.8634V21.6841C90.4572 21.5638 90.1289 21.4713 89.7866 21.4066C89.4537 21.3418 89.1114 21.3095 88.76 21.3095C88.094 21.3095 87.5529 21.4482 87.1367 21.7257C86.7204 22.0032 86.5123 22.3685 86.5123 22.8217C86.5123 23.0437 86.5539 23.2518 86.6372 23.4461C86.7297 23.6403 86.8499 23.8114 86.9979 23.9594C87.1552 24.0982 87.3402 24.2092 87.5529 24.2924C87.7656 24.3757 87.9922 24.4173 88.2327 24.4173ZM96.2694 25H95.3537V18.5901H92.8147V17.7715H98.8084V18.5901H96.2694V25ZM100.149 17.7715H101.079V20.3383H102.646C102.979 20.3383 103.294 20.3891 103.59 20.4909C103.886 20.5926 104.145 20.7406 104.367 20.9348C104.589 21.1291 104.765 21.3742 104.894 21.6702C105.024 21.9569 105.088 22.2899 105.088 22.6691C105.088 23.0484 105.024 23.386 104.894 23.6819C104.765 23.9687 104.589 24.2092 104.367 24.4034C104.145 24.5976 103.886 24.7456 103.59 24.8474C103.294 24.9491 102.979 25 102.646 25H100.149V17.7715ZM102.646 24.1953C103.127 24.1953 103.497 24.0612 103.756 23.7929C104.025 23.5155 104.159 23.1409 104.159 22.6691C104.159 22.1974 104.025 21.8274 103.756 21.5592C103.488 21.2817 103.118 21.143 102.646 21.143H101.079V24.1953H102.646ZM48.421 33.7715C48.68 33.7715 48.9159 33.8178 49.1286 33.9103C49.3506 34.0028 49.5402 34.1322 49.6975 34.2987C49.8639 34.456 49.9888 34.641 50.0721 34.8537C50.1646 35.0664 50.2108 35.2977 50.2108 35.5474C50.2108 35.7139 50.1877 35.8804 50.1414 36.0469C50.1044 36.2134 50.0443 36.3753 49.9611 36.5325C49.8778 36.6805 49.7715 36.8192 49.642 36.9487C49.5125 37.069 49.3598 37.1661 49.1841 37.2401C49.5911 37.3511 49.9102 37.5638 50.1414 37.8783C50.3727 38.1928 50.4883 38.572 50.4883 39.016C50.4883 39.312 50.4328 39.5802 50.3218 39.8207C50.2201 40.0612 50.0721 40.2693 49.8778 40.445C49.6928 40.6208 49.4708 40.7595 49.2119 40.8613C48.9529 40.9538 48.6708 41 48.3655 41H44.8831V33.7715H48.421ZM48.0464 36.9626C48.4257 36.9626 48.7263 36.8424 48.9482 36.6019C49.1702 36.3614 49.2812 36.0561 49.2812 35.6862C49.2812 35.3624 49.1887 35.0803 49.0037 34.8398C48.8188 34.5993 48.532 34.4791 48.1435 34.4791H45.7988V36.9626H48.0464ZM48.2684 40.2924C48.4626 40.2924 48.6384 40.2554 48.7956 40.1814C48.9621 40.1074 49.1009 40.0103 49.2119 39.8901C49.3229 39.7606 49.4107 39.6172 49.4755 39.46C49.5402 39.3027 49.5726 39.1362 49.5726 38.9605C49.5726 38.6275 49.457 38.3315 49.2257 38.0725C49.0037 37.8135 48.6939 37.6841 48.2962 37.6841H45.7988V40.2924H48.2684ZM59.0645 31.2187H59.9802L61.3676 34.715L62.7689 31.2187H63.6985L61.9781 35.4226L63.865 39.8762L67.4307 31.1493H68.4851L64.309 41H63.4488L61.3815 36.1301L59.3004 41H58.4541L54.2918 31.1493H55.3323L58.9119 39.8762L60.7849 35.4226L59.0645 31.2187ZM75.7538 41H74.8104V36.9626C74.8104 36.1394 74.667 35.5243 74.3803 35.1173C74.1028 34.7103 73.6912 34.5069 73.1455 34.5069C72.8772 34.5069 72.609 34.5624 72.3408 34.6733C72.0818 34.7751 71.8367 34.9185 71.6054 35.1034C71.3742 35.2884 71.1707 35.5058 70.995 35.7555C70.8285 36.0053 70.7036 36.2781 70.6204 36.5741V41H69.6769V30.8718H70.6204V35.4087C70.9071 34.863 71.3048 34.4329 71.8135 34.1184C72.3223 33.8039 72.8726 33.6467 73.4646 33.6467C73.8808 33.6467 74.2323 33.7253 74.519 33.8825C74.8058 34.0305 75.0416 34.2432 75.2266 34.5207C75.4116 34.789 75.5457 35.1173 75.629 35.5058C75.7122 35.885 75.7538 36.3059 75.7538 36.7684V41ZM79.5832 41.1387C79.241 41.1387 78.9219 41.0832 78.6259 40.9723C78.3392 40.852 78.0848 40.6901 77.8628 40.4867C77.6501 40.2832 77.4836 40.0473 77.3633 39.7791C77.2431 39.5016 77.183 39.2056 77.183 38.8911C77.183 38.5766 77.257 38.2853 77.405 38.017C77.553 37.7488 77.7611 37.5176 78.0293 37.3233C78.2975 37.1291 78.6167 36.9811 78.9866 36.8793C79.3566 36.7684 79.7636 36.7129 80.2076 36.7129C80.5775 36.7129 80.9522 36.7452 81.3314 36.81C81.7106 36.8747 82.0482 36.9672 82.3442 37.0875V36.4354C82.3442 35.7972 82.1638 35.2931 81.8031 34.9231C81.4424 34.5439 80.9429 34.3542 80.3047 34.3542C79.9347 34.3542 79.5555 34.4282 79.167 34.5762C78.7785 34.7242 78.3854 34.937 77.9877 35.2144L77.6547 34.5901C78.5889 33.9611 79.4954 33.6467 80.3741 33.6467C81.2805 33.6467 81.9927 33.901 82.5107 34.4097C83.0287 34.9185 83.2876 35.6214 83.2876 36.5186V39.7791C83.2876 40.0381 83.4033 40.1675 83.6345 40.1675V41C83.4773 41.0277 83.357 41.0416 83.2738 41.0416C83.0333 41.0416 82.8437 40.9815 82.7049 40.8613C82.5754 40.741 82.5061 40.5745 82.4968 40.3618L82.4691 39.7929C82.1361 40.2277 81.7152 40.5606 81.2065 40.7919C80.707 41.0231 80.1659 41.1387 79.5832 41.1387ZM79.8052 40.4173C80.2954 40.4173 80.744 40.3248 81.151 40.1398C81.5672 39.9548 81.8817 39.7097 82.0945 39.4045C82.1777 39.3212 82.2378 39.2333 82.2748 39.1409C82.3211 39.0391 82.3442 38.9466 82.3442 38.8634V37.6841C82.0297 37.5638 81.7014 37.4713 81.3591 37.4066C81.0261 37.3418 80.6839 37.3095 80.3324 37.3095C79.6665 37.3095 79.1254 37.4482 78.7091 37.7257C78.2929 38.0032 78.0848 38.3685 78.0848 38.8217C78.0848 39.0437 78.1264 39.2518 78.2097 39.4461C78.3022 39.6403 78.4224 39.8114 78.5704 39.9594C78.7276 40.0982 78.9126 40.2092 79.1254 40.2924C79.3381 40.3757 79.5647 40.4173 79.8052 40.4173ZM88.7404 40.6531C88.6849 40.6809 88.6017 40.7179 88.4907 40.7641C88.389 40.8104 88.2687 40.8566 88.13 40.9029C87.9912 40.9491 87.834 40.9908 87.6582 41.0277C87.4825 41.0647 87.2975 41.0832 87.1033 41.0832C86.8998 41.0832 86.7056 41.0555 86.5206 41C86.3356 40.9445 86.1737 40.8613 86.035 40.7503C85.8962 40.63 85.7852 40.482 85.702 40.3063C85.6187 40.1305 85.5771 39.9271 85.5771 39.6958V34.5207H84.5782V33.7715H85.5771V31.3297H86.5206V33.7715H88.1855V34.5207H86.5206V39.4322C86.5391 39.7004 86.6316 39.8993 86.798 40.0288C86.9738 40.149 87.1727 40.2092 87.3946 40.2092C87.6629 40.2092 87.8987 40.1675 88.1022 40.0843C88.3057 39.9918 88.4352 39.9271 88.4907 39.8901L88.7404 40.6531ZM92.3195 41.1387C91.7552 41.1387 91.2049 41.0462 90.6684 40.8613C90.1319 40.6763 89.6695 40.408 89.281 40.0566L89.7111 39.4183C90.1181 39.7513 90.5297 40.0011 90.9459 40.1675C91.3714 40.334 91.8246 40.4173 92.3056 40.4173C92.8883 40.4173 93.3508 40.3017 93.693 40.0704C94.0445 39.8299 94.2202 39.4923 94.2202 39.0576C94.2202 38.8541 94.174 38.6876 94.0815 38.5581C93.989 38.4194 93.8502 38.2991 93.6653 38.1974C93.4895 38.0957 93.2629 38.0078 92.9854 37.9338C92.7172 37.8505 92.4027 37.7673 92.042 37.6841C91.6257 37.5823 91.265 37.4806 90.9598 37.3788C90.6545 37.2771 90.4002 37.1615 90.1967 37.032C90.0025 36.9025 89.8545 36.7452 89.7527 36.5602C89.6602 36.366 89.614 36.1255 89.614 35.8388C89.614 35.4781 89.6833 35.1589 89.8221 34.8815C89.9701 34.604 90.1643 34.3774 90.4048 34.2016C90.6545 34.0166 90.9413 33.8779 91.265 33.7854C91.598 33.6929 91.9495 33.6467 92.3195 33.6467C92.8744 33.6467 93.3785 33.7391 93.8317 33.9241C94.285 34.0999 94.6503 34.3357 94.9278 34.6317L94.47 35.1867C94.2017 34.9092 93.8734 34.7011 93.4849 34.5624C93.1057 34.4236 92.7079 34.3542 92.2917 34.3542C92.042 34.3542 91.8107 34.382 91.598 34.4375C91.3853 34.4837 91.1956 34.5624 91.0291 34.6733C90.8719 34.7843 90.747 34.9277 90.6545 35.1034C90.562 35.2699 90.5158 35.4688 90.5158 35.7C90.5158 35.8943 90.5482 36.0515 90.6129 36.1718C90.6777 36.292 90.784 36.3984 90.932 36.4909C91.08 36.5741 91.265 36.6527 91.487 36.7267C91.7182 36.7915 91.9957 36.8609 92.3195 36.9348C92.7819 37.0458 93.1889 37.1568 93.5404 37.2678C93.8919 37.3788 94.1832 37.5083 94.4145 37.6563C94.6549 37.8043 94.8353 37.9847 94.9556 38.1974C95.0758 38.4101 95.1359 38.6691 95.1359 38.9744C95.1359 39.6403 94.8816 40.1675 94.3728 40.556C93.8641 40.9445 93.1797 41.1387 92.3195 41.1387ZM99.8184 31.1493H100.637L104.73 41H103.703L102.427 37.9199H98.0008L96.7383 41H95.6977L99.8184 31.1493ZM102.205 37.1568L100.221 32.287L98.209 37.1568H102.205ZM109.638 41.1387C109.028 41.1387 108.487 40.9861 108.015 40.6809C107.553 40.3664 107.178 39.9733 106.891 39.5016V43.9552H105.948V33.7715H106.794V35.1728C107.09 34.7196 107.474 34.3542 107.946 34.0768C108.417 33.79 108.931 33.6467 109.486 33.6467C109.985 33.6467 110.443 33.753 110.859 33.9658C111.275 34.1692 111.636 34.4467 111.941 34.7982C112.247 35.1404 112.483 35.5382 112.649 35.9914C112.825 36.4446 112.913 36.9117 112.913 37.3927C112.913 37.9014 112.834 38.3824 112.677 38.8356C112.52 39.2888 112.293 39.6866 111.997 40.0288C111.71 40.371 111.363 40.6439 110.956 40.8474C110.559 41.0416 110.119 41.1387 109.638 41.1387ZM109.375 40.3063C109.763 40.3063 110.115 40.223 110.429 40.0566C110.753 39.8901 111.026 39.6727 111.248 39.4045C111.479 39.127 111.655 38.8171 111.775 38.4749C111.895 38.1234 111.955 37.7627 111.955 37.3927C111.955 37.0042 111.886 36.6342 111.747 36.2828C111.608 35.9313 111.419 35.6214 111.178 35.3532C110.938 35.0849 110.651 34.8722 110.318 34.715C109.994 34.5577 109.643 34.4791 109.264 34.4791C109.023 34.4791 108.769 34.53 108.501 34.6317C108.242 34.7242 107.997 34.8537 107.765 35.0202C107.543 35.1774 107.349 35.3671 107.183 35.589C107.025 35.8018 106.928 36.0284 106.891 36.2689V38.4888C107.002 38.7477 107.141 38.9882 107.307 39.2102C107.483 39.4322 107.677 39.6264 107.89 39.7929C108.112 39.9502 108.348 40.0751 108.598 40.1675C108.847 40.26 109.106 40.3063 109.375 40.3063ZM118.201 41.1387C117.591 41.1387 117.05 40.9861 116.578 40.6809C116.116 40.3664 115.741 39.9733 115.454 39.5016V43.9552H114.511V33.7715H115.357V35.1728C115.653 34.7196 116.037 34.3542 116.509 34.0768C116.98 33.79 117.494 33.6467 118.049 33.6467C118.548 33.6467 119.006 33.753 119.422 33.9658C119.838 34.1692 120.199 34.4467 120.504 34.7982C120.81 35.1404 121.046 35.5382 121.212 35.9914C121.388 36.4446 121.476 36.9117 121.476 37.3927C121.476 37.9014 121.397 38.3824 121.24 38.8356C121.083 39.2888 120.856 39.6866 120.56 40.0288C120.273 40.371 119.926 40.6439 119.519 40.8474C119.122 41.0416 118.682 41.1387 118.201 41.1387ZM117.938 40.3063C118.326 40.3063 118.678 40.223 118.992 40.0566C119.316 39.8901 119.589 39.6727 119.811 39.4045C120.042 39.127 120.218 38.8171 120.338 38.4749C120.458 38.1234 120.518 37.7627 120.518 37.3927C120.518 37.0042 120.449 36.6342 120.31 36.2828C120.171 35.9313 119.982 35.6214 119.741 35.3532C119.501 35.0849 119.214 34.8722 118.881 34.715C118.557 34.5577 118.206 34.4791 117.827 34.4791C117.586 34.4791 117.332 34.53 117.064 34.6317C116.805 34.7242 116.56 34.8537 116.328 35.0202C116.106 35.1774 115.912 35.3671 115.746 35.589C115.588 35.8018 115.491 36.0284 115.454 36.2689V38.4888C115.565 38.7477 115.704 38.9882 115.87 39.2102C116.046 39.4322 116.24 39.6264 116.453 39.7929C116.675 39.9502 116.911 40.0751 117.161 40.1675C117.41 40.26 117.669 40.3063 117.938 40.3063Z" fill="white"/>
<rect width="142.801" height="52" rx="26" fill="white"/>
<rect width="142.801" height="52" rx="26" fill="url(#paint6_linear_6_56)"/>
<path fill-rule="evenodd" clip-rule="evenodd" d="M30.0815 21.7944C28.9721 20.6838 27.4969 20.0719 25.9251 20.0712C22.6864 20.0712 20.0505 22.7069 20.0492 25.9466C20.0488 26.9821 20.3194 27.9929 20.8336 28.8841L20 31.9288L23.1148 31.1117C23.9731 31.5798 24.9393 31.8266 25.9227 31.8269H25.9251C29.1634 31.8269 31.7996 29.1909 31.8009 25.9512C31.8015 24.3812 31.1908 22.905 30.0815 21.7944ZM25.9251 30.8346H25.9232C25.0468 30.8343 24.1873 30.5988 23.4375 30.1539L23.2592 30.0481L21.4108 30.5329L21.9041 28.7308L21.788 28.5459C21.2992 27.7684 21.0409 26.8697 21.0413 25.9469C21.0424 23.2542 23.2332 21.0636 25.9271 21.0636C27.2315 21.064 28.4577 21.5726 29.3798 22.4958C30.3018 23.4189 30.8093 24.6459 30.8088 25.9509C30.8077 28.6438 28.6169 30.8346 25.9251 30.8346ZM28.6039 27.1769C28.4571 27.1035 27.7354 26.7483 27.6008 26.6993C27.4662 26.6503 27.3683 26.6258 27.2704 26.7728C27.1726 26.9198 26.8912 27.2504 26.8055 27.3485C26.7199 27.4464 26.6342 27.4587 26.4875 27.3852C26.3406 27.3117 25.8676 27.1567 25.3068 26.6565C24.8704 26.2672 24.5757 25.7864 24.4901 25.6394C24.4044 25.4924 24.4809 25.413 24.5544 25.3398C24.6205 25.2739 24.7013 25.1682 24.7747 25.0825C24.8481 24.9968 24.8726 24.9355 24.9215 24.8376C24.9705 24.7396 24.946 24.6538 24.9092 24.5804C24.8726 24.5069 24.5789 23.7842 24.4566 23.4902C24.3374 23.204 24.2164 23.2427 24.1263 23.2382C24.0407 23.234 23.9428 23.233 23.8448 23.233C23.747 23.233 23.588 23.2697 23.4534 23.4167C23.3188 23.5637 22.9395 23.9189 22.9395 24.6416C22.9395 25.3642 23.4656 26.0623 23.539 26.1603C23.6124 26.2583 24.5743 27.7412 26.047 28.3772C26.3972 28.5285 26.6707 28.6188 26.884 28.6865C27.2357 28.7983 27.5558 28.7824 27.8087 28.7447C28.0908 28.7025 28.6773 28.3895 28.7997 28.0465C28.922 27.7036 28.922 27.4096 28.8853 27.3484C28.8486 27.2872 28.7508 27.2504 28.6039 27.1769Z" fill="white"/>
<path fill-rule="evenodd" clip-rule="evenodd" d="M30.0815 21.7944C28.9721 20.6838 27.4969 20.0719 25.9251 20.0712C22.6864 20.0712 20.0505 22.7069 20.0492 25.9466C20.0488 26.9821 20.3194 27.9929 20.8336 28.8841L20 31.9288L23.1148 31.1117C23.9731 31.5798 24.9393 31.8266 25.9227 31.8269H25.9251C29.1634 31.8269 31.7996 29.1909 31.8009 25.9512C31.8015 24.3812 31.1908 22.905 30.0815 21.7944ZM25.9251 30.8346H25.9232C25.0468 30.8343 24.1873 30.5988 23.4375 30.1539L23.2592 30.0481L21.4108 30.5329L21.9041 28.7308L21.788 28.5459C21.2992 27.7684 21.0409 26.8697 21.0413 25.9469C21.0424 23.2542 23.2332 21.0636 25.9271 21.0636C27.2315 21.064 28.4577 21.5726 29.3798 22.4958C30.3018 23.4189 30.8093 24.6459 30.8088 25.9509C30.8077 28.6438 28.6169 30.8346 25.9251 30.8346ZM28.6039 27.1769C28.4571 27.1035 27.7354 26.7483 27.6008 26.6993C27.4662 26.6503 27.3683 26.6258 27.2704 26.7728C27.1726 26.9198 26.8912 27.2504 26.8055 27.3485C26.7199 27.4464 26.6342 27.4587 26.4875 27.3852C26.3406 27.3117 25.8676 27.1567 25.3068 26.6565C24.8704 26.2672 24.5757 25.7864 24.4901 25.6394C24.4044 25.4924 24.4809 25.413 24.5544 25.3398C24.6205 25.2739 24.7013 25.1682 24.7747 25.0825C24.8481 24.9968 24.8726 24.9355 24.9215 24.8376C24.9705 24.7396 24.946 24.6538 24.9092 24.5804C24.8726 24.5069 24.5789 23.7842 24.4566 23.4902C24.3374 23.204 24.2164 23.2427 24.1263 23.2382C24.0407 23.234 23.9428 23.233 23.8448 23.233C23.747 23.233 23.588 23.2697 23.4534 23.4167C23.3188 23.5637 22.9395 23.9189 22.9395 24.6416C22.9395 25.3642 23.4656 26.0623 23.539 26.1603C23.6124 26.2583 24.5743 27.7412 26.047 28.3772C26.3972 28.5285 26.6707 28.6188 26.884 28.6865C27.2357 28.7983 27.5558 28.7824 27.8087 28.7447C28.0908 28.7025 28.6773 28.3895 28.7997 28.0465C28.922 27.7036 28.922 27.4096 28.8853 27.3484C28.8486 27.2872 28.7508 27.2504 28.6039 27.1769Z" fill="url(#paint7_linear_6_56)"/>
<path fill-rule="evenodd" clip-rule="evenodd" d="M30.0815 21.7944C28.9721 20.6838 27.4969 20.0719 25.9251 20.0712C22.6864 20.0712 20.0505 22.7069 20.0492 25.9466C20.0488 26.9821 20.3194 27.9929 20.8336 28.8841L20 31.9288L23.1148 31.1117C23.9731 31.5798 24.9393 31.8266 25.9227 31.8269H25.9251C29.1634 31.8269 31.7996 29.1909 31.8009 25.9512C31.8015 24.3812 31.1908 22.905 30.0815 21.7944ZM25.9251 30.8346H25.9232C25.0468 30.8343 24.1873 30.5988 23.4375 30.1539L23.2592 30.0481L21.4108 30.5329L21.9041 28.7308L21.788 28.5459C21.2992 27.7684 21.0409 26.8697 21.0413 25.9469C21.0424 23.2542 23.2332 21.0636 25.9271 21.0636C27.2315 21.064 28.4577 21.5726 29.3798 22.4958C30.3018 23.4189 30.8093 24.6459 30.8088 25.9509C30.8077 28.6438 28.6169 30.8346 25.9251 30.8346ZM28.6039 27.1769C28.4571 27.1035 27.7354 26.7483 27.6008 26.6993C27.4662 26.6503 27.3683 26.6258 27.2704 26.7728C27.1726 26.9198 26.8912 27.2504 26.8055 27.3485C26.7199 27.4464 26.6342 27.4587 26.4875 27.3852C26.3406 27.3117 25.8676 27.1567 25.3068 26.6565C24.8704 26.2672 24.5757 25.7864 24.4901 25.6394C24.4044 25.4924 24.4809 25.413 24.5544 25.3398C24.6205 25.2739 24.7013 25.1682 24.7747 25.0825C24.8481 24.9968 24.8726 24.9355 24.9215 24.8376C24.9705 24.7396 24.946 24.6538 24.9092 24.5804C24.8726 24.5069 24.5789 23.7842 24.4566 23.4902C24.3374 23.204 24.2164 23.2427 24.1263 23.2382C24.0407 23.234 23.9428 23.233 23.8448 23.233C23.747 23.233 23.588 23.2697 23.4534 23.4167C23.3188 23.5637 22.9395 23.9189 22.9395 24.6416C22.9395 25.3642 23.4656 26.0623 23.539 26.1603C23.6124 26.2583 24.5743 27.7412 26.047 28.3772C26.3972 28.5285 26.6707 28.6188 26.884 28.6865C27.2357 28.7983 27.5558 28.7824 27.8087 28.7447C28.0908 28.7025 28.6773 28.3895 28.7997 28.0465C28.922 27.7036 28.922 27.4096 28.8853 27.3484C28.8486 27.2872 28.7508 27.2504 28.6039 27.1769Z" fill="white"/>
<path d="M52.8192 13.1493V23H51.8618V18.3938H46.0208V23H45.0496V13.1493H46.0208V17.5335H51.8618V13.1493H52.8192ZM56.875 23.1387C56.5328 23.1387 56.2137 23.0832 55.9177 22.9723C55.6309 22.852 55.3766 22.6901 55.1546 22.4867C54.9418 22.2832 54.7754 22.0473 54.6551 21.7791C54.5349 21.5016 54.4747 21.2056 54.4747 20.8911C54.4747 20.5766 54.5487 20.2853 54.6967 20.017C54.8447 19.7488 55.0528 19.5176 55.3211 19.3233C55.5893 19.1291 55.9084 18.9811 56.2784 18.8793C56.6484 18.7684 57.0554 18.7129 57.4993 18.7129C57.8693 18.7129 58.2439 18.7452 58.6231 18.81C59.0024 18.8747 59.34 18.9672 59.636 19.0875V18.4354C59.636 17.7972 59.4556 17.2931 59.0949 16.9231C58.7341 16.5439 58.2347 16.3542 57.5965 16.3542C57.2265 16.3542 56.8472 16.4282 56.4588 16.5762C56.0703 16.7242 55.6772 16.937 55.2795 17.2144L54.9465 16.5901C55.8807 15.9611 56.7871 15.6467 57.6658 15.6467C58.5723 15.6467 59.2845 15.901 59.8025 16.4097C60.3204 16.9185 60.5794 17.6214 60.5794 18.5186V21.7791C60.5794 22.0381 60.695 22.1675 60.9263 22.1675V23C60.769 23.0277 60.6488 23.0416 60.5655 23.0416C60.3251 23.0416 60.1354 22.9815 59.9967 22.8613C59.8672 22.741 59.7978 22.5745 59.7886 22.3618L59.7608 21.7929C59.4279 22.2277 59.007 22.5606 58.4983 22.7919C57.9988 23.0231 57.4577 23.1387 56.875 23.1387ZM57.097 22.4173C57.5872 22.4173 58.0358 22.3248 58.4428 22.1398C58.859 21.9548 59.1735 21.7097 59.3862 21.4045C59.4695 21.3212 59.5296 21.2333 59.5666 21.1409C59.6128 21.0391 59.636 20.9466 59.636 20.8634V19.6841C59.3215 19.5638 58.9931 19.4713 58.6509 19.4066C58.3179 19.3418 57.9757 19.3095 57.6242 19.3095C56.9582 19.3095 56.4171 19.4482 56.0009 19.7257C55.5847 20.0032 55.3766 20.3685 55.3766 20.8217C55.3766 21.0437 55.4182 21.2518 55.5014 21.4461C55.5939 21.6403 55.7142 21.8114 55.8622 21.9594C56.0194 22.0982 56.2044 22.2092 56.4171 22.2924C56.6299 22.3757 56.8565 22.4173 57.097 22.4173ZM68.3337 23H67.418V16.5901H63.5748V23H62.6453V15.7715H68.3337V23ZM71.3927 21.6681L75.7075 15.7715H76.4706V23H75.541V17.2144L71.3094 23H70.4631V15.7715H71.3927V21.6681ZM78.0792 19.3649C78.0792 18.8562 78.167 18.3753 78.3428 17.922C78.5185 17.4688 78.7636 17.0757 79.0781 16.7427C79.4018 16.4005 79.7857 16.1322 80.2297 15.938C80.6737 15.7438 81.1639 15.6467 81.7003 15.6467C82.3848 15.6467 82.9814 15.8039 83.4901 16.1184C83.9988 16.4236 84.3827 16.8398 84.6417 17.3671L83.726 17.6584C83.5225 17.2884 83.2358 17.0017 82.8658 16.7982C82.5051 16.5855 82.1027 16.4791 81.6587 16.4791C81.2887 16.4791 80.9419 16.5531 80.6182 16.7011C80.3037 16.8491 80.0262 17.0526 79.7857 17.3116C79.5545 17.5613 79.3695 17.8619 79.2307 18.2134C79.1012 18.5649 79.0365 18.9487 79.0365 19.3649C79.0365 19.7719 79.1059 20.1558 79.2446 20.5165C79.3833 20.8772 79.573 21.1917 79.8135 21.46C80.0539 21.7189 80.3314 21.9271 80.6459 22.0843C80.9696 22.2323 81.3119 22.3063 81.6726 22.3063C81.9038 22.3063 82.1304 22.2739 82.3524 22.2092C82.5837 22.1444 82.7964 22.0566 82.9907 21.9456C83.1849 21.8253 83.3514 21.6912 83.4901 21.5432C83.6289 21.3952 83.726 21.238 83.7815 21.0715L84.7111 21.349C84.6093 21.608 84.4613 21.8484 84.2671 22.0704C84.0728 22.2832 83.8416 22.4728 83.5734 22.6393C83.3144 22.7965 83.023 22.9168 82.6993 23C82.3848 23.0925 82.0565 23.1387 81.7142 23.1387C81.187 23.1387 80.7014 23.0416 80.2574 22.8474C79.8135 22.6439 79.4296 22.371 79.1059 22.0288C78.7821 21.6773 78.5278 21.275 78.3428 20.8217C78.167 20.3685 78.0792 19.8829 78.0792 19.3649ZM88.0107 23.1387C87.6685 23.1387 87.3494 23.0832 87.0534 22.9723C86.7667 22.852 86.5123 22.6901 86.2903 22.4867C86.0776 22.2832 85.9111 22.0473 85.7909 21.7791C85.6706 21.5016 85.6105 21.2056 85.6105 20.8911C85.6105 20.5766 85.6845 20.2853 85.8325 20.017C85.9805 19.7488 86.1886 19.5176 86.4568 19.3233C86.7251 19.1291 87.0442 18.9811 87.4142 18.8793C87.7841 18.7684 88.1911 18.7129 88.6351 18.7129C89.0051 18.7129 89.3797 18.7452 89.7589 18.81C90.1381 18.8747 90.4757 18.9672 90.7717 19.0875V18.4354C90.7717 17.7972 90.5914 17.2931 90.2306 16.9231C89.8699 16.5439 89.3704 16.3542 88.7322 16.3542C88.3622 16.3542 87.983 16.4282 87.5945 16.5762C87.206 16.7242 86.8129 16.937 86.4152 17.2144L86.0822 16.5901C87.0164 15.9611 87.9229 15.6467 88.8016 15.6467C89.708 15.6467 90.4202 15.901 90.9382 16.4097C91.4562 16.9185 91.7152 17.6214 91.7152 18.5186V21.7791C91.7152 22.0381 91.8308 22.1675 92.062 22.1675V23C91.9048 23.0277 91.7845 23.0416 91.7013 23.0416C91.4608 23.0416 91.2712 22.9815 91.1324 22.8613C91.003 22.741 90.9336 22.5745 90.9243 22.3618L90.8966 21.7929C90.5636 22.2277 90.1428 22.5606 89.634 22.7919C89.1346 23.0231 88.5935 23.1387 88.0107 23.1387ZM88.2327 22.4173C88.723 22.4173 89.1716 22.3248 89.5785 22.1398C89.9948 21.9548 90.3092 21.7097 90.522 21.4045C90.6052 21.3212 90.6653 21.2333 90.7023 21.1409C90.7486 21.0391 90.7717 20.9466 90.7717 20.8634V19.6841C90.4572 19.5638 90.1289 19.4713 89.7866 19.4066C89.4537 19.3418 89.1114 19.3095 88.76 19.3095C88.094 19.3095 87.5529 19.4482 87.1367 19.7257C86.7204 20.0032 86.5123 20.3685 86.5123 20.8217C86.5123 21.0437 86.5539 21.2518 86.6372 21.4461C86.7297 21.6403 86.8499 21.8114 86.9979 21.9594C87.1552 22.0982 87.3402 22.2092 87.5529 22.2924C87.7656 22.3757 87.9922 22.4173 88.2327 22.4173ZM96.2694 23H95.3537V16.5901H92.8147V15.7715H98.8084V16.5901H96.2694V23ZM100.149 15.7715H101.079V18.3383H102.646C102.979 18.3383 103.294 18.3891 103.59 18.4909C103.886 18.5926 104.145 18.7406 104.367 18.9348C104.589 19.1291 104.765 19.3742 104.894 19.6702C105.024 19.9569 105.088 20.2899 105.088 20.6691C105.088 21.0484 105.024 21.386 104.894 21.6819C104.765 21.9687 104.589 22.2092 104.367 22.4034C104.145 22.5976 103.886 22.7456 103.59 22.8474C103.294 22.9491 102.979 23 102.646 23H100.149V15.7715ZM102.646 22.1953C103.127 22.1953 103.497 22.0612 103.756 21.7929C104.025 21.5155 104.159 21.1409 104.159 20.6691C104.159 20.1974 104.025 19.8274 103.756 19.5592C103.488 19.2817 103.118 19.143 102.646 19.143H101.079V22.1953H102.646ZM48.421 31.7715C48.68 31.7715 48.9159 31.8178 49.1286 31.9103C49.3506 32.0028 49.5402 32.1322 49.6975 32.2987C49.8639 32.456 49.9888 32.641 50.0721 32.8537C50.1646 33.0664 50.2108 33.2977 50.2108 33.5474C50.2108 33.7139 50.1877 33.8804 50.1414 34.0469C50.1044 34.2134 50.0443 34.3753 49.9611 34.5325C49.8778 34.6805 49.7715 34.8192 49.642 34.9487C49.5125 35.069 49.3598 35.1661 49.1841 35.2401C49.5911 35.3511 49.9102 35.5638 50.1414 35.8783C50.3727 36.1928 50.4883 36.572 50.4883 37.016C50.4883 37.312 50.4328 37.5802 50.3218 37.8207C50.2201 38.0612 50.0721 38.2693 49.8778 38.445C49.6928 38.6208 49.4708 38.7595 49.2119 38.8613C48.9529 38.9538 48.6708 39 48.3655 39H44.8831V31.7715H48.421ZM48.0464 34.9626C48.4257 34.9626 48.7263 34.8424 48.9482 34.6019C49.1702 34.3614 49.2812 34.0561 49.2812 33.6862C49.2812 33.3624 49.1887 33.0803 49.0037 32.8398C48.8188 32.5993 48.532 32.4791 48.1435 32.4791H45.7988V34.9626H48.0464ZM48.2684 38.2924C48.4626 38.2924 48.6384 38.2554 48.7956 38.1814C48.9621 38.1074 49.1009 38.0103 49.2119 37.8901C49.3229 37.7606 49.4107 37.6172 49.4755 37.46C49.5402 37.3027 49.5726 37.1362 49.5726 36.9605C49.5726 36.6275 49.457 36.3315 49.2257 36.0725C49.0037 35.8135 48.6939 35.6841 48.2962 35.6841H45.7988V38.2924H48.2684ZM59.0645 29.2187H59.9802L61.3676 32.715L62.7689 29.2187H63.6985L61.9781 33.4226L63.865 37.8762L67.4307 29.1493H68.4851L64.309 39H63.4488L61.3815 34.1301L59.3004 39H58.4541L54.2918 29.1493H55.3323L58.9119 37.8762L60.7849 33.4226L59.0645 29.2187ZM75.7538 39H74.8104V34.9626C74.8104 34.1394 74.667 33.5243 74.3803 33.1173C74.1028 32.7103 73.6912 32.5069 73.1455 32.5069C72.8772 32.5069 72.609 32.5624 72.3408 32.6733C72.0818 32.7751 71.8367 32.9185 71.6054 33.1034C71.3742 33.2884 71.1707 33.5058 70.995 33.7555C70.8285 34.0053 70.7036 34.2781 70.6204 34.5741V39H69.6769V28.8718H70.6204V33.4087C70.9071 32.863 71.3048 32.4329 71.8135 32.1184C72.3223 31.8039 72.8726 31.6467 73.4646 31.6467C73.8808 31.6467 74.2323 31.7253 74.519 31.8825C74.8058 32.0305 75.0416 32.2432 75.2266 32.5207C75.4116 32.789 75.5457 33.1173 75.629 33.5058C75.7122 33.885 75.7538 34.3059 75.7538 34.7684V39ZM79.5832 39.1387C79.241 39.1387 78.9219 39.0832 78.6259 38.9723C78.3392 38.852 78.0848 38.6901 77.8628 38.4867C77.6501 38.2832 77.4836 38.0473 77.3633 37.7791C77.2431 37.5016 77.183 37.2056 77.183 36.8911C77.183 36.5766 77.257 36.2853 77.405 36.017C77.553 35.7488 77.7611 35.5176 78.0293 35.3233C78.2975 35.1291 78.6167 34.9811 78.9866 34.8793C79.3566 34.7684 79.7636 34.7129 80.2076 34.7129C80.5775 34.7129 80.9522 34.7452 81.3314 34.81C81.7106 34.8747 82.0482 34.9672 82.3442 35.0875V34.4354C82.3442 33.7972 82.1638 33.2931 81.8031 32.9231C81.4424 32.5439 80.9429 32.3542 80.3047 32.3542C79.9347 32.3542 79.5555 32.4282 79.167 32.5762C78.7785 32.7242 78.3854 32.937 77.9877 33.2144L77.6547 32.5901C78.5889 31.9611 79.4954 31.6467 80.3741 31.6467C81.2805 31.6467 81.9927 31.901 82.5107 32.4097C83.0287 32.9185 83.2876 33.6214 83.2876 34.5186V37.7791C83.2876 38.0381 83.4033 38.1675 83.6345 38.1675V39C83.4773 39.0277 83.357 39.0416 83.2738 39.0416C83.0333 39.0416 82.8437 38.9815 82.7049 38.8613C82.5754 38.741 82.5061 38.5745 82.4968 38.3618L82.4691 37.7929C82.1361 38.2277 81.7152 38.5606 81.2065 38.7919C80.707 39.0231 80.1659 39.1387 79.5832 39.1387ZM79.8052 38.4173C80.2954 38.4173 80.744 38.3248 81.151 38.1398C81.5672 37.9548 81.8817 37.7097 82.0945 37.4045C82.1777 37.3212 82.2378 37.2333 82.2748 37.1409C82.3211 37.0391 82.3442 36.9466 82.3442 36.8634V35.6841C82.0297 35.5638 81.7014 35.4713 81.3591 35.4066C81.0261 35.3418 80.6839 35.3095 80.3324 35.3095C79.6665 35.3095 79.1254 35.4482 78.7091 35.7257C78.2929 36.0032 78.0848 36.3685 78.0848 36.8217C78.0848 37.0437 78.1264 37.2518 78.2097 37.4461C78.3022 37.6403 78.4224 37.8114 78.5704 37.9594C78.7276 38.0982 78.9126 38.2092 79.1254 38.2924C79.3381 38.3757 79.5647 38.4173 79.8052 38.4173ZM88.7404 38.6531C88.6849 38.6809 88.6017 38.7179 88.4907 38.7641C88.389 38.8104 88.2687 38.8566 88.13 38.9029C87.9912 38.9491 87.834 38.9908 87.6582 39.0277C87.4825 39.0647 87.2975 39.0832 87.1033 39.0832C86.8998 39.0832 86.7056 39.0555 86.5206 39C86.3356 38.9445 86.1737 38.8613 86.035 38.7503C85.8962 38.63 85.7852 38.482 85.702 38.3063C85.6187 38.1305 85.5771 37.9271 85.5771 37.6958V32.5207H84.5782V31.7715H85.5771V29.3297H86.5206V31.7715H88.1855V32.5207H86.5206V37.4322C86.5391 37.7004 86.6316 37.8993 86.798 38.0288C86.9738 38.149 87.1727 38.2092 87.3946 38.2092C87.6629 38.2092 87.8987 38.1675 88.1022 38.0843C88.3057 37.9918 88.4352 37.9271 88.4907 37.8901L88.7404 38.6531ZM92.3195 39.1387C91.7552 39.1387 91.2049 39.0462 90.6684 38.8613C90.1319 38.6763 89.6695 38.408 89.281 38.0566L89.7111 37.4183C90.1181 37.7513 90.5297 38.0011 90.9459 38.1675C91.3714 38.334 91.8246 38.4173 92.3056 38.4173C92.8883 38.4173 93.3508 38.3017 93.693 38.0704C94.0445 37.8299 94.2202 37.4923 94.2202 37.0576C94.2202 36.8541 94.174 36.6876 94.0815 36.5581C93.989 36.4194 93.8502 36.2991 93.6653 36.1974C93.4895 36.0957 93.2629 36.0078 92.9854 35.9338C92.7172 35.8505 92.4027 35.7673 92.042 35.6841C91.6257 35.5823 91.265 35.4806 90.9598 35.3788C90.6545 35.2771 90.4002 35.1615 90.1967 35.032C90.0025 34.9025 89.8545 34.7452 89.7527 34.5602C89.6602 34.366 89.614 34.1255 89.614 33.8388C89.614 33.4781 89.6833 33.1589 89.8221 32.8815C89.9701 32.604 90.1643 32.3774 90.4048 32.2016C90.6545 32.0166 90.9413 31.8779 91.265 31.7854C91.598 31.6929 91.9495 31.6467 92.3195 31.6467C92.8744 31.6467 93.3785 31.7391 93.8317 31.9241C94.285 32.0999 94.6503 32.3357 94.9278 32.6317L94.47 33.1867C94.2017 32.9092 93.8734 32.7011 93.4849 32.5624C93.1057 32.4236 92.7079 32.3542 92.2917 32.3542C92.042 32.3542 91.8107 32.382 91.598 32.4375C91.3853 32.4837 91.1956 32.5624 91.0291 32.6733C90.8719 32.7843 90.747 32.9277 90.6545 33.1034C90.562 33.2699 90.5158 33.4688 90.5158 33.7C90.5158 33.8943 90.5482 34.0515 90.6129 34.1718C90.6777 34.292 90.784 34.3984 90.932 34.4909C91.08 34.5741 91.265 34.6527 91.487 34.7267C91.7182 34.7915 91.9957 34.8609 92.3195 34.9348C92.7819 35.0458 93.1889 35.1568 93.5404 35.2678C93.8919 35.3788 94.1832 35.5083 94.4145 35.6563C94.6549 35.8043 94.8353 35.9847 94.9556 36.1974C95.0758 36.4101 95.1359 36.6691 95.1359 36.9744C95.1359 37.6403 94.8816 38.1675 94.3728 38.556C93.8641 38.9445 93.1797 39.1387 92.3195 39.1387ZM99.8184 29.1493H100.637L104.73 39H103.703L102.427 35.9199H98.0008L96.7383 39H95.6977L99.8184 29.1493ZM102.205 35.1568L100.221 30.287L98.209 35.1568H102.205ZM109.638 39.1387C109.028 39.1387 108.487 38.9861 108.015 38.6809C107.553 38.3664 107.178 37.9733 106.891 37.5016V41.9552H105.948V31.7715H106.794V33.1728C107.09 32.7196 107.474 32.3542 107.946 32.0768C108.417 31.79 108.931 31.6467 109.486 31.6467C109.985 31.6467 110.443 31.753 110.859 31.9658C111.275 32.1692 111.636 32.4467 111.941 32.7982C112.247 33.1404 112.483 33.5382 112.649 33.9914C112.825 34.4446 112.913 34.9117 112.913 35.3927C112.913 35.9014 112.834 36.3824 112.677 36.8356C112.52 37.2888 112.293 37.6866 111.997 38.0288C111.71 38.371 111.363 38.6439 110.956 38.8474C110.559 39.0416 110.119 39.1387 109.638 39.1387ZM109.375 38.3063C109.763 38.3063 110.115 38.223 110.429 38.0566C110.753 37.8901 111.026 37.6727 111.248 37.4045C111.479 37.127 111.655 36.8171 111.775 36.4749C111.895 36.1234 111.955 35.7627 111.955 35.3927C111.955 35.0042 111.886 34.6342 111.747 34.2828C111.608 33.9313 111.419 33.6214 111.178 33.3532C110.938 33.0849 110.651 32.8722 110.318 32.715C109.994 32.5577 109.643 32.4791 109.264 32.4791C109.023 32.4791 108.769 32.53 108.501 32.6317C108.242 32.7242 107.997 32.8537 107.765 33.0202C107.543 33.1774 107.349 33.3671 107.183 33.589C107.025 33.8018 106.928 34.0284 106.891 34.2689V36.4888C107.002 36.7477 107.141 36.9882 107.307 37.2102C107.483 37.4322 107.677 37.6264 107.89 37.7929C108.112 37.9502 108.348 38.0751 108.598 38.1675C108.847 38.26 109.106 38.3063 109.375 38.3063ZM118.201 39.1387C117.591 39.1387 117.05 38.9861 116.578 38.6809C116.116 38.3664 115.741 37.9733 115.454 37.5016V41.9552H114.511V31.7715H115.357V33.1728C115.653 32.7196 116.037 32.3542 116.509 32.0768C116.98 31.79 117.494 31.6467 118.049 31.6467C118.548 31.6467 119.006 31.753 119.422 31.9658C119.838 32.1692 120.199 32.4467 120.504 32.7982C120.81 33.1404 121.046 33.5382 121.212 33.9914C121.388 34.4446 121.476 34.9117 121.476 35.3927C121.476 35.9014 121.397 36.3824 121.24 36.8356C121.083 37.2888 120.856 37.6866 120.56 38.0288C120.273 38.371 119.926 38.6439 119.519 38.8474C119.122 39.0416 118.682 39.1387 118.201 39.1387ZM117.938 38.3063C118.326 38.3063 118.678 38.223 118.992 38.0566C119.316 37.8901 119.589 37.6727 119.811 37.4045C120.042 37.127 120.218 36.8171 120.338 36.4749C120.458 36.1234 120.518 35.7627 120.518 35.3927C120.518 35.0042 120.449 34.6342 120.31 34.2828C120.171 33.9313 119.982 33.6214 119.741 33.3532C119.501 33.0849 119.214 32.8722 118.881 32.715C118.557 32.5577 118.206 32.4791 117.827 32.4791C117.586 32.4791 117.332 32.53 117.064 32.6317C116.805 32.7242 116.56 32.8537 116.328 33.0202C116.106 33.1774 115.912 33.3671 115.746 33.589C115.588 33.8018 115.491 34.0284 115.454 34.2689V36.4888C115.565 36.7477 115.704 36.9882 115.87 37.2102C116.046 37.4322 116.24 37.6264 116.453 37.7929C116.675 37.9502 116.911 38.0751 117.161 38.1675C117.41 38.26 117.669 38.3063 117.938 38.3063Z" fill="white"/>
<defs>
<filter id="filter0_f_6_56" x="4.72625" y="1.66375" width="132.148" height="52.6725" filterUnits="userSpaceOnUse" color-interpolation-filters="sRGB">
<feFlood flood-opacity="0" result="BackgroundImageFix"/>
<feBlend mode="normal" in="SourceGraphic" in2="BackgroundImageFix" result="shape"/>
<feGaussianBlur stdDeviation="2.66812" result="effect1_foregroundBlur_6_56"/>
</filter>
<linearGradient id="paint0_linear_6_56" x1="13.2911" y1="49" x2="94.9918" y2="-27.1286" gradientUnits="userSpaceOnUse">
<stop stop-color="#27D045"/>
<stop offset="1" stop-color="#5FFC7B"/>
</linearGradient>
<linearGradient id="paint1_linear_6_56" x1="13.2911" y1="49" x2="94.9918" y2="-27.1286" gradientUnits="userSpaceOnUse">
<stop stop-color="#25C040"/>
<stop offset="1" stop-color="#55EB70"/>
</linearGradient>
<linearGradient id="paint2_linear_6_56" x1="30.3997" y1="33.9288" x2="44.6474" y2="29.018" gradientUnits="userSpaceOnUse">
<stop stop-color="#27D045"/>
<stop offset="1" stop-color="#5FFC7B"/>
</linearGradient>
<linearGradient id="paint3_linear_6_56" x1="4.08003" y1="54" x2="105.358" y2="-42.3246" gradientUnits="userSpaceOnUse">
<stop stop-color="#27D045"/>
<stop offset="1" stop-color="#5FFC7B"/>
</linearGradient>
<linearGradient id="paint4_linear_6_56" x1="4.08003" y1="54" x2="105.358" y2="-42.3246" gradientUnits="userSpaceOnUse">
<stop stop-color="#25C040"/>
<stop offset="1" stop-color="#55EB70"/>
</linearGradient>
<linearGradient id="paint5_linear_6_56" x1="20.3372" y1="33.9288" x2="34.5849" y2="29.018" gradientUnits="userSpaceOnUse">
<stop stop-color="#27D045"/>
<stop offset="1" stop-color="#5FFC7B"/>
</linearGradient>
<linearGradient id="paint6_linear_6_56" x1="4.08003" y1="52" x2="105.358" y2="-44.3246" gradientUnits="userSpaceOnUse">
<stop stop-color="#27D045"/>
<stop offset="1" stop-color="#5FFC7B"/>
</linearGradient>
<linearGradient id="paint7_linear_6_56" x1="20.3372" y1="31.9288" x2="34.5849" y2="27.018" gradientUnits="userSpaceOnUse">
<stop stop-color="#27D045"/>
<stop offset="1" stop-color="#5FFC7B"/>
</linearGradient>
</defs>
</svg>
