<svg width="42" height="30" viewBox="0 0 42 30" fill="none" xmlns="http://www.w3.org/2000/svg">
<g filter="url(#filter0_f_12_946)">
<rect x="6.18115" y="5.84814" width="30.0579" height="18.4226" rx="9.2113" fill="url(#paint0_linear_12_946)"/>
</g>
<rect x="4.24292" y="1.9697" width="33.9364" height="22.301" rx="11.1505" fill="url(#paint1_linear_12_946)"/>
<rect x="4" y="1" width="33.9364" height="22.301" rx="11.1505" fill="url(#paint2_linear_12_946)"/>
<path fill-rule="evenodd" clip-rule="evenodd" d="M25.4605 7.77001C24.3793 6.68754 22.9415 6.09115 21.4096 6.09048C18.2531 6.09048 15.684 8.65936 15.6828 11.8169C15.6824 12.8262 15.946 13.8113 16.4472 14.6798L15.6348 17.6474L18.6706 16.851C19.5071 17.3072 20.4488 17.5477 21.4073 17.5481H21.4096C24.5658 17.5481 27.1351 14.9789 27.1364 11.8213C27.1369 10.2912 26.5418 8.85243 25.4605 7.77001ZM21.4096 16.5809H21.4077C20.5536 16.5806 19.7159 16.3511 18.9851 15.9174L18.8113 15.8143L17.0098 16.2869L17.4906 14.5304L17.3774 14.3502C16.901 13.5925 16.6493 12.7166 16.6497 11.8171C16.6507 9.19277 18.786 7.05769 21.4116 7.05769C22.6828 7.05813 23.878 7.55386 24.7767 8.45362C25.6753 9.35333 26.1699 10.5492 26.1694 11.821C26.1683 14.4456 24.0331 16.5809 21.4096 16.5809ZM24.0205 13.016C23.8774 12.9444 23.1739 12.5982 23.0428 12.5504C22.9116 12.5028 22.8162 12.4789 22.7208 12.6221C22.6254 12.7654 22.3512 13.0877 22.2677 13.1832C22.1842 13.2786 22.1007 13.2906 21.9577 13.219C21.8145 13.1474 21.3535 12.9962 20.807 12.5087C20.3816 12.1293 20.0944 11.6608 20.0109 11.5174C19.9275 11.3742 20.002 11.2968 20.0737 11.2254C20.1381 11.1613 20.2168 11.0583 20.2884 10.9747C20.3599 10.8912 20.3837 10.8315 20.4315 10.736C20.4792 10.6405 20.4553 10.5569 20.4195 10.4853C20.3837 10.4137 20.0976 9.70932 19.9783 9.42281C19.8622 9.14384 19.7442 9.18159 19.6564 9.17718C19.573 9.17305 19.4775 9.17211 19.3821 9.17211C19.2867 9.17211 19.1317 9.20792 19.0005 9.35118C18.8694 9.49444 18.4997 9.84062 18.4997 10.545C18.4997 11.2493 19.0124 11.9296 19.084 12.0252C19.1555 12.1207 20.093 13.566 21.5284 14.1858C21.8698 14.3333 22.1363 14.4213 22.3442 14.4873C22.687 14.5962 22.9989 14.5808 23.2454 14.544C23.5204 14.5029 24.092 14.1978 24.2112 13.8636C24.3305 13.5293 24.3305 13.2428 24.2947 13.1831C24.259 13.1235 24.1636 13.0877 24.0205 13.016Z" fill="#FFFAFA"/>
<defs>
<filter id="filter0_f_12_946" x="0.980251" y="0.647235" width="40.4597" height="28.8244" filterUnits="userSpaceOnUse" color-interpolation-filters="sRGB">
<feFlood flood-opacity="0" result="BackgroundImageFix"/>
<feBlend mode="normal" in="SourceGraphic" in2="BackgroundImageFix" result="shape"/>
<feGaussianBlur stdDeviation="2.60045" result="effect1_foregroundBlur_12_946"/>
</filter>
<linearGradient id="paint0_linear_12_946" x1="7.03995" y1="24.2707" x2="37.8149" y2="6.88081" gradientUnits="userSpaceOnUse">
<stop stop-color="#27D045"/>
<stop offset="1" stop-color="#5FFC7B"/>
</linearGradient>
<linearGradient id="paint1_linear_12_946" x1="5.21253" y1="24.2707" x2="41.0881" y2="5.36333" gradientUnits="userSpaceOnUse">
<stop stop-color="#25C040"/>
<stop offset="1" stop-color="#55EB70"/>
</linearGradient>
<linearGradient id="paint2_linear_12_946" x1="4.96961" y1="23.301" x2="40.8452" y2="4.39364" gradientUnits="userSpaceOnUse">
<stop stop-color="#27D045"/>
<stop offset="1" stop-color="#5FFC7B"/>
</linearGradient>
</defs>
</svg>
